<svg xmlns="http://www.w3.org/2000/svg" xmlns:xlink="http://www.w3.org/1999/xlink" viewBox="0 0 39 39"><defs><style>.a,.b{fill:#fff;}.a{stroke:#707070;}.c{clip-path:url(#c);}.d{fill:#de2910;}.e{fill:#ffde00;}.f{filter:url(#a);}</style><filter id="a" x="0" y="0" width="39" height="39" filterUnits="userSpaceOnUse"><feOffset dy="2" input="SourceAlpha"/><feGaussianBlur stdDeviation="2" result="b"/><feFlood flood-opacity="0.302"/><feComposite operator="in" in2="b"/><feComposite in="SourceGraphic"/></filter><clipPath id="c"><circle class="a" cx="12.42" cy="12.42" r="12.42" transform="translate(0)"/></clipPath></defs><g transform="translate(6 4)"><g class="f" transform="matrix(1, 0, 0, 1, -6, -4)"><circle class="b" cx="13.5" cy="13.5" r="13.5" transform="translate(6 4)"/></g><g class="c" transform="translate(1.08 1.08)"><g transform="translate(-0.33 -0.247)"><rect class="d" width="45.25" height="30.167"/><path class="e" d="M1.926-2.5l2.66,8.186L-2.378.627H6.229L-.734,5.686Z" transform="translate(5.616 5.517)"/><path class="e" d="M1.435,0l.887,2.729L0,1.042H2.869L.548,2.729Z" transform="translate(14.353 1.067) rotate(23.036)"/><path class="e" d="M1.435,0l.887,2.729L0,1.042H2.869L.548,2.729Z" transform="translate(18.184 3.953) rotate(45.87)"/><path class="e" d="M1.435,0l.887,2.729L0,1.042H2.869L.548,2.729Z" transform="translate(19.025 8.694) rotate(69.945)"/><path class="e" d="M1.435,0l.887,2.729L0,1.042H2.869L.548,2.729Z" transform="translate(14.273 11.658) rotate(20.66)"/></g></g></g></svg>