<svg width="35" height="35" viewBox="0 0 35 35" fill="none" xmlns="http://www.w3.org/2000/svg">
<g filter="url(#filter0_d)">
<circle cx="17.5" cy="16" r="13" fill="white"/>
</g>
<mask id="mask0" mask-type="alpha" maskUnits="userSpaceOnUse" x="5" y="3" width="25" height="26">
<circle cx="17.4999" cy="16" r="12.037" fill="white"/>
</mask>
<g mask="url(#mask0)">
<path d="M5.46289 5.88889H51.6851V29H5.46289V5.88889Z" fill="#1EB53A"/>
<path d="M5.46289 5.88889H51.6851V17.4444H5.46289V5.88889Z" fill="#0099B5"/>
<path d="M5.46289 13.2844H51.6851V21.6044H5.46289V13.2844Z" fill="#CE1126"/>
<path d="M5.46289 13.7467H51.6851V21.1422H5.46289V13.7467Z" fill="white"/>
<path d="M11.9342 12.36C13.4659 12.36 14.7076 11.1183 14.7076 9.58667C14.7076 8.055 13.4659 6.81334 11.9342 6.81334C10.4026 6.81334 9.16089 8.055 9.16089 9.58667C9.16089 11.1183 10.4026 12.36 11.9342 12.36Z" fill="white"/>
<path d="M12.8585 12.36C14.3902 12.36 15.6319 11.1183 15.6319 9.58667C15.6319 8.055 14.3902 6.81334 12.8585 6.81334C11.3269 6.81334 10.0852 8.055 10.0852 9.58667C10.0852 11.1183 11.3269 12.36 12.8585 12.36Z" fill="#0099B5"/>
<path d="M18.0355 11.2507L17.864 11.7781L18.1279 11.864" fill="white"/>
<path d="M18.0353 11.2507L18.2068 11.7781L17.9429 11.864" fill="white"/>
<path d="M18.563 11.6339H18.0083V11.9112" fill="white"/>
<path d="M18.5629 11.6338L18.1141 11.9602L17.9514 11.7355" fill="white"/>
<path d="M17.5081 11.6339L17.9569 11.9602L18.1196 11.7355" fill="white"/>
<path d="M17.5081 11.6339H18.0627V11.9112" fill="white"/>
<path d="M18.3622 12.2558L18.1912 11.7284L17.9272 11.8139" fill="white"/>
<path d="M18.3612 12.2541L17.9128 11.9278L18.0755 11.7036" fill="white"/>
<path d="M17.7119 12.2542L18.1603 11.9278L17.9976 11.7036" fill="white"/>
<path d="M17.7119 12.2558L17.8829 11.7284L18.1469 11.8139" fill="white"/>
<path d="M18.0355 9.03201L17.864 9.55941L18.1279 9.64538" fill="white"/>
<path d="M18.0353 9.03203L18.2068 9.55942L17.9429 9.6454" fill="white"/>
<path d="M18.563 9.41521H18.0083V9.69254" fill="white"/>
<path d="M18.5629 9.41521L18.1141 9.74154L17.9514 9.5169" fill="white"/>
<path d="M17.5081 9.41519L17.9569 9.74152L18.1196 9.51688" fill="white"/>
<path d="M17.5081 9.41519H18.0627V9.69252" fill="white"/>
<path d="M18.3622 10.0372L18.1912 9.50978L17.9272 9.59529" fill="white"/>
<path d="M18.3612 10.0355L17.9128 9.70918L18.0755 9.485" fill="white"/>
<path d="M17.7119 10.0355L18.1603 9.70916L17.9976 9.48499" fill="white"/>
<path d="M17.7119 10.0372L17.8829 9.50977L18.1469 9.59528" fill="white"/>
<path d="M18.0355 6.81334L17.864 7.34073L18.1279 7.42671" fill="white"/>
<path d="M18.0353 6.81334L18.2068 7.34073L17.9429 7.42671" fill="white"/>
<path d="M18.563 7.19652H18.0083V7.47385" fill="white"/>
<path d="M18.5629 7.19652L18.1141 7.52285L17.9514 7.29821" fill="white"/>
<path d="M17.5081 7.19652L17.9569 7.52285L18.1196 7.29821" fill="white"/>
<path d="M17.5081 7.19652H18.0627V7.47385" fill="white"/>
<path d="M18.3622 7.81847L18.1912 7.29108L17.9272 7.37659" fill="white"/>
<path d="M18.3612 7.81682L17.9128 7.49049L18.0755 7.26631" fill="white"/>
<path d="M17.7119 7.81682L18.1603 7.49049L17.9976 7.26631" fill="white"/>
<path d="M17.7119 7.81847L17.8829 7.29108L18.1469 7.37659" fill="white"/>
<path d="M20.254 11.2507L20.0825 11.7781L20.3464 11.864" fill="white"/>
<path d="M20.2541 11.2507L20.4255 11.7781L20.1616 11.864" fill="white"/>
<path d="M20.7815 11.6339H20.2268V11.9112" fill="white"/>
<path d="M20.7814 11.6338L20.3326 11.9602L20.1699 11.7355" fill="white"/>
<path d="M19.7266 11.6339L20.1754 11.9602L20.3381 11.7355" fill="white"/>
<path d="M19.7266 11.6339H20.2812V11.9112" fill="white"/>
<path d="M20.5807 12.2558L20.4097 11.7284L20.1458 11.8139" fill="white"/>
<path d="M20.5797 12.2541L20.1313 11.9278L20.294 11.7036" fill="white"/>
<path d="M19.9304 12.2542L20.3788 11.9278L20.2161 11.7036" fill="white"/>
<path d="M19.9304 12.2558L20.1014 11.7284L20.3654 11.8139" fill="white"/>
<path d="M20.254 9.03201L20.0825 9.55941L20.3464 9.64538" fill="white"/>
<path d="M20.2541 9.03203L20.4255 9.55942L20.1616 9.6454" fill="white"/>
<path d="M20.7815 9.41521H20.2268V9.69254" fill="white"/>
<path d="M20.7814 9.41521L20.3326 9.74154L20.1699 9.5169" fill="white"/>
<path d="M19.7266 9.41519L20.1754 9.74152L20.3381 9.51688" fill="white"/>
<path d="M19.7266 9.41519H20.2812V9.69252" fill="white"/>
<path d="M20.5807 10.0372L20.4097 9.50978L20.1458 9.59529" fill="white"/>
<path d="M20.5797 10.0355L20.1313 9.70918L20.294 9.485" fill="white"/>
<path d="M19.9304 10.0355L20.3788 9.70916L20.2161 9.48499" fill="white"/>
<path d="M19.9304 10.0372L20.1014 9.50977L20.3654 9.59528" fill="white"/>
<path d="M20.254 6.81334L20.0825 7.34073L20.3464 7.42671" fill="white"/>
<path d="M20.2541 6.81334L20.4255 7.34073L20.1616 7.42671" fill="white"/>
<path d="M20.7815 7.19652H20.2268V7.47385" fill="white"/>
<path d="M20.7814 7.19652L20.3326 7.52285L20.1699 7.29821" fill="white"/>
<path d="M19.7266 7.19652L20.1754 7.52285L20.3381 7.29821" fill="white"/>
<path d="M19.7266 7.19652H20.2812V7.47385" fill="white"/>
<path d="M20.5807 7.81847L20.4097 7.29108L20.1458 7.37659" fill="white"/>
<path d="M20.5797 7.81682L20.1313 7.49049L20.294 7.26631" fill="white"/>
<path d="M19.9304 7.81682L20.3788 7.49049L20.2161 7.26631" fill="white"/>
<path d="M19.9304 7.81847L20.1014 7.29108L20.3654 7.37659" fill="white"/>
<path d="M22.4728 11.2507L22.3013 11.7781L22.5652 11.864" fill="white"/>
<path d="M22.4726 11.2507L22.6441 11.7781L22.3801 11.864" fill="white"/>
<path d="M23.0002 11.6339H22.4456V11.9112" fill="white"/>
<path d="M23.0002 11.6338L22.5514 11.9602L22.3887 11.7355" fill="white"/>
<path d="M21.9453 11.6339L22.3941 11.9602L22.5568 11.7355" fill="white"/>
<path d="M21.9453 11.6339H22.5V11.9112" fill="white"/>
<path d="M22.7995 12.2558L22.6284 11.7284L22.3645 11.8139" fill="white"/>
<path d="M22.7985 12.2541L22.3501 11.9278L22.5128 11.7036" fill="white"/>
<path d="M22.1492 12.2542L22.5975 11.9278L22.4348 11.7036" fill="white"/>
<path d="M22.1492 12.2558L22.3202 11.7284L22.5841 11.8139" fill="white"/>
<path d="M22.4728 9.03201L22.3013 9.55941L22.5652 9.64538" fill="white"/>
<path d="M22.4726 9.03203L22.6441 9.55942L22.3801 9.6454" fill="white"/>
<path d="M23.0002 9.41521H22.4456V9.69254" fill="white"/>
<path d="M23.0002 9.41521L22.5514 9.74154L22.3887 9.5169" fill="white"/>
<path d="M21.9453 9.41519L22.3941 9.74152L22.5568 9.51688" fill="white"/>
<path d="M21.9453 9.41519H22.5V9.69252" fill="white"/>
<path d="M22.7995 10.0372L22.6284 9.50978L22.3645 9.59529" fill="white"/>
<path d="M22.7985 10.0355L22.3501 9.70918L22.5128 9.485" fill="white"/>
<path d="M22.1492 10.0355L22.5975 9.70916L22.4348 9.48499" fill="white"/>
<path d="M22.1492 10.0372L22.3202 9.50977L22.5841 9.59528" fill="white"/>
<path d="M22.4728 6.81334L22.3013 7.34073L22.5652 7.42671" fill="white"/>
<path d="M22.4726 6.81334L22.6441 7.34073L22.3801 7.42671" fill="white"/>
<path d="M23.0002 7.19652H22.4456V7.47385" fill="white"/>
<path d="M23.0002 7.19652L22.5514 7.52285L22.3887 7.29821" fill="white"/>
<path d="M21.9453 7.19652L22.3941 7.52285L22.5568 7.29821" fill="white"/>
<path d="M21.9453 7.19652H22.5V7.47385" fill="white"/>
<path d="M22.7995 7.81847L22.6284 7.29108L22.3645 7.37659" fill="white"/>
<path d="M22.7985 7.81682L22.3501 7.49049L22.5128 7.26631" fill="white"/>
<path d="M22.1492 7.81682L22.5975 7.49049L22.4348 7.26631" fill="white"/>
<path d="M22.1492 7.81847L22.3202 7.29108L22.5841 7.37659" fill="white"/>
<path d="M13.5982 11.2507L13.4268 11.7781L13.6907 11.864" fill="white"/>
<path d="M13.5981 11.2507L13.7695 11.7781L13.5056 11.864" fill="white"/>
<path d="M14.1257 11.6339H13.571V11.9112" fill="white"/>
<path d="M14.1257 11.6338L13.6769 11.9602L13.5142 11.7355" fill="white"/>
<path d="M13.0708 11.6338L13.5196 11.9602L13.6823 11.7355" fill="white"/>
<path d="M13.0708 11.6338H13.6255V11.9112" fill="white"/>
<path d="M13.9249 12.2558L13.7539 11.7284L13.49 11.8139" fill="white"/>
<path d="M13.9239 12.2541L13.4756 11.9278L13.6383 11.7036" fill="white"/>
<path d="M13.2747 12.2541L13.723 11.9278L13.5603 11.7036" fill="white"/>
<path d="M13.2747 12.2558L13.4457 11.7284L13.7096 11.8139" fill="white"/>
<path d="M15.8167 11.2507L15.6453 11.7781L15.9092 11.864" fill="white"/>
<path d="M15.8168 11.2507L15.9883 11.7781L15.7244 11.864" fill="white"/>
<path d="M16.3442 11.6339H15.7896V11.9112" fill="white"/>
<path d="M16.3442 11.6338L15.8954 11.9602L15.7327 11.7355" fill="white"/>
<path d="M15.2893 11.6338L15.7381 11.9602L15.9008 11.7355" fill="white"/>
<path d="M15.2893 11.6338H15.844V11.9112" fill="white"/>
<path d="M16.1434 12.2558L15.9724 11.7284L15.7085 11.8139" fill="white"/>
<path d="M16.1424 12.2541L15.6941 11.9278L15.8568 11.7036" fill="white"/>
<path d="M15.4932 12.2541L15.9415 11.9278L15.7788 11.7036" fill="white"/>
<path d="M15.4932 12.2558L15.6642 11.7284L15.9281 11.8139" fill="white"/>
<path d="M15.8167 9.03201L15.6453 9.55941L15.9092 9.64538" fill="white"/>
<path d="M15.8168 9.03203L15.9883 9.55942L15.7244 9.6454" fill="white"/>
<path d="M16.3442 9.41521H15.7896V9.69254" fill="white"/>
<path d="M16.3442 9.41521L15.8954 9.74154L15.7327 9.5169" fill="white"/>
<path d="M15.2893 9.41519L15.7381 9.74152L15.9008 9.51688" fill="white"/>
<path d="M15.2893 9.41519H15.844V9.69252" fill="white"/>
<path d="M16.1434 10.0372L15.9724 9.50978L15.7085 9.59529" fill="white"/>
<path d="M16.1424 10.0355L15.6941 9.70918L15.8568 9.485" fill="white"/>
<path d="M15.4932 10.0355L15.9415 9.70916L15.7788 9.48499" fill="white"/>
<path d="M15.4932 10.0372L15.6642 9.50977L15.9281 9.59528" fill="white"/>
<rect x="9.3147" y="2.03703" width="15.4074" height="3.85185" fill="#0099B5"/>
</g>
<defs>
<filter id="filter0_d" x="0.5" y="1" width="34" height="34" filterUnits="userSpaceOnUse" color-interpolation-filters="sRGB">
<feFlood flood-opacity="0" result="BackgroundImageFix"/>
<feColorMatrix in="SourceAlpha" type="matrix" values="0 0 0 0 0 0 0 0 0 0 0 0 0 0 0 0 0 0 127 0"/>
<feOffset dy="2"/>
<feGaussianBlur stdDeviation="2"/>
<feColorMatrix type="matrix" values="0 0 0 0 0 0 0 0 0 0 0 0 0 0 0 0 0 0 0.3 0"/>
<feBlend mode="normal" in2="BackgroundImageFix" result="effect1_dropShadow"/>
<feBlend mode="normal" in="SourceGraphic" in2="effect1_dropShadow" result="shape"/>
</filter>
</defs>
</svg>
