<svg xmlns="http://www.w3.org/2000/svg" width="120" height="120" viewBox="0 0 120 120"><title>avatar_female</title><g opacity="0.7"><path d="M59.31,22.59c-14.85,0-26.88,15.05-26.88,33.58,0,14.9,2.85,20.69,7.48,22.7a9.70749,9.70749,0,0,0,2.74.78c3.87.58,8.58-.31,13.74-.62a12.97292,12.97292,0,0,0,2.92.37,13.34059,13.34059,0,0,0,3.01-.38c13.42.65,23.87,4.44,23.87-22.85C86.19,37.64,74.16,22.59,59.31,22.59Zm18.8,32.9-1.09.15-.29,1.07C74.16,66.06,67.21,76,59.35,76S44.56,66.06,41.96,56.71l-.29-1.07-1.09-.15c-1.32-.18-3.01-1.68-3.67-4.21a6.18151,6.18151,0,0,1,.44-4.59,2.51048,2.51048,0,0,1,1.02-1c2.81,3.91,10.11,3.07,16.4-1.87a23.65528,23.65528,0,0,0,4.12-4.13,2.23731,2.23731,0,0,1,.44.07,14.20847,14.20847,0,0,1,1.81.53,17.12331,17.12331,0,0,1,1.73.83,15.38429,15.38429,0,0,1,1.58,1.04,14.20021,14.20021,0,0,1,1.34,1.21,10.02782,10.02782,0,0,1,1.07,1.25,13.00048,13.00048,0,0,1,.8,1.18,6.23651,6.23651,0,0,1,.54.98c.28.57.44.89.44.89s-.06-.34-.16-.98a9.57738,9.57738,0,0,0-.24-1.12,9.8782,9.8782,0,0,0-.45-1.45,15.34642,15.34642,0,0,0-.73-1.66,18.92118,18.92118,0,0,0-1.05-1.76,20.21436,20.21436,0,0,0-1.42-1.72,18.81085,18.81085,0,0,0-1.72-1.6,19.25967,19.25967,0,0,0-1.8-1.18,13.78079,13.78079,0,0,0,.67-1.69,21.447,21.447,0,0,1,6.39,4.14c6.73,6.74,4.08,14.56,9.27,9.39a13.91875,13.91875,0,0,0,2.02-2.53,2.1124,2.1124,0,0,1,.51.02,2.367,2.367,0,0,1,1.41,1.16,6.18156,6.18156,0,0,1,.44,4.59C81.13,53.82,79.46,55.33,78.11,55.49Z" fill="#cad7e5"/><path d="M96.3,103.43v4.34a59.986,59.986,0,0,1-72.6,0v-4.34c0-8.08,6.9-17.3,16.79-21.33,2.12,3.59,4.56,6.63,7.79,8.3,6.68994,3.44,11.65,6.2,11.65,6.2l.02-.02v-.05l.05.04.05-.04v.05l.02.02s4.98-2.79,11.65-6.2c3.23-1.67,5.68-4.71,7.79-8.3C89.38,86.13,96.3,95.37,96.3,103.43Z" fill="#cad7e5"/></g><g opacity="0.7"><path d="M60,3A56.9976,56.9976,0,0,1,94.48335,105.38252,57,57,0,0,1,3,60,57.06455,57.06455,0,0,1,60,3m0-3a59.99759,59.99759,0,1,0,60,60A59.99624,59.99624,0,0,0,60,0Z" fill="#cad7e5"/></g></svg>