<svg xmlns="http://www.w3.org/2000/svg" width="120" height="120" viewBox="0 0 120 120"><title>avatar_male</title><g opacity="0.7"><path d="M104.29,100.48a60.00788,60.00788,0,0,1-88.6-.02A20.62468,20.62468,0,0,1,26.78,90.8c13.91-4.54,19.69-10.19,19.69-10.19l.46.44c4.13,3.89,8.7,6.18,12.86005,6.18h.4c4.16,0,8.72-2.29,12.85-6.18l.47-.44s5.78,5.65,19.68,10.19A20.80291,20.80291,0,0,1,104.29,100.48Z" fill="#cad7e5"/><path d="M81.0323,49.99171l-.16057-.18681a2.8127,2.8127,0,0,0-1.94654-.9969s1.87828-10.1652.3721-14.9723c-2.36457-7.677-21.258-10.82237-24.09089-11.42041.00046-.00569-1.723-.3756-1.83307-.37634a8.2278,8.2278,0,0,0-4.81082.725c-1.682.69405-5.70579,2.97089-8.20163,11.07179-1.50594,4.80709.37234,14.9723.37234,14.9723a2.81338,2.81338,0,0,0-1.94678.9969l-.16033.18681c-.72852.88728-.54858,3.66346.24776,6.55172.72161,2.89371,2.616,3.67138,2.8414,4.3491,2.28453,11.5048,10.22835,21.32781,18.32352,21.32781s15.61936-9.823,17.90389-21.32781c.22561-.67747,2.12-1.45539,2.84162-4.3491C81.58065,53.65493,81.78158,50.68823,81.0323,49.99171Z" fill="#cad7e5"/></g><g opacity="0.7"><path d="M60,3a57.00416,57.00416,0,0,1,43.10213,94.30459c-.33191.37939-.66361.759-1.02646,1.15132a57.00795,57.00795,0,0,1-84.18132-.03085c-.34072-.3691-.67174-.74793-.99559-1.11793A57.00526,57.00526,0,0,1,60,3m0-3A60.00525,60.00525,0,0,0,14.63,99.27c.35.4.7.8,1.06,1.19a60.00788,60.00788,0,0,0,88.6.02c.37-.4.72-.8,1.07-1.2A60.00412,60.00412,0,0,0,60,0Z" fill="#cad7e5"/></g></svg>