<svg xmlns="http://www.w3.org/2000/svg" width="75.2797" height="83.00065" viewBox="0 0 75.2797 83.00065"><title>climate</title><g id="Layer_2" data-name="Layer 2"><g id="icons"><line x1="37.64067" y1="54.00005" x2="37.64067" y2="16.50048" fill="none" stroke="#231300" stroke-miterlimit="10" stroke-width="3"/><line x1="37.63985" y1="1.5" x2="37.63985" y2="16.50048" fill="none" stroke="#231300" stroke-linecap="round" stroke-miterlimit="10" stroke-width="3"/><line x1="48.24679" y1="5.89354" x2="37.63985" y2="16.50048" fill="none" stroke="#231300" stroke-linecap="round" stroke-miterlimit="10" stroke-width="3"/><line x1="27.03291" y1="5.89354" x2="37.63985" y2="16.50048" fill="none" stroke="#231300" stroke-linecap="round" stroke-miterlimit="10" stroke-width="3"/><line x1="37.64067" y1="54.00005" x2="37.64067" y2="66.50017" fill="none" stroke="#231300" stroke-miterlimit="10" stroke-width="3"/><line x1="37.63985" y1="81.50065" x2="37.63985" y2="66.50017" fill="none" stroke="#231300" stroke-linecap="round" stroke-miterlimit="10" stroke-width="3"/><line x1="48.24679" y1="77.10711" x2="37.63985" y2="66.50017" fill="none" stroke="#231300" stroke-linecap="round" stroke-miterlimit="10" stroke-width="3"/><line x1="27.03291" y1="77.10711" x2="37.63985" y2="66.50017" fill="none" stroke="#231300" stroke-linecap="round" stroke-miterlimit="10" stroke-width="3"/><line x1="48.46533" y1="47.74948" x2="15.98976" y2="28.9997" fill="none" stroke="#231300" stroke-miterlimit="10" stroke-width="3"/><line x1="2.99855" y1="21.50016" x2="15.98935" y2="29.0004" fill="none" stroke="#231300" stroke-linecap="round" stroke-miterlimit="10" stroke-width="3"/><line x1="12.10694" y1="14.51105" x2="15.98935" y2="29.0004" fill="none" stroke="#231300" stroke-linecap="round" stroke-miterlimit="10" stroke-width="3"/><line x1="1.5" y1="32.88281" x2="15.98935" y2="29.0004" fill="none" stroke="#231300" stroke-linecap="round" stroke-miterlimit="10" stroke-width="3"/><line x1="48.46533" y1="47.74948" x2="59.29076" y2="53.99954" fill="none" stroke="#231300" stroke-miterlimit="10" stroke-width="3"/><line x1="72.28115" y1="61.50049" x2="59.29036" y2="54.00025" fill="none" stroke="#231300" stroke-linecap="round" stroke-miterlimit="10" stroke-width="3"/><line x1="73.7797" y1="50.11784" x2="59.29036" y2="54.00025" fill="none" stroke="#231300" stroke-linecap="round" stroke-miterlimit="10" stroke-width="3"/><line x1="63.17276" y1="68.4896" x2="59.29036" y2="54.00025" fill="none" stroke="#231300" stroke-linecap="round" stroke-miterlimit="10" stroke-width="3"/><line x1="48.46452" y1="35.24976" x2="15.98894" y2="53.99954" fill="none" stroke="#231300" stroke-miterlimit="10" stroke-width="3"/><line x1="2.99855" y1="61.50049" x2="15.98935" y2="54.00025" fill="none" stroke="#231300" stroke-linecap="round" stroke-miterlimit="10" stroke-width="3"/><line x1="1.5" y1="50.11784" x2="15.98935" y2="54.00025" fill="none" stroke="#231300" stroke-linecap="round" stroke-miterlimit="10" stroke-width="3"/><line x1="12.10694" y1="68.4896" x2="15.98935" y2="54.00025" fill="none" stroke="#231300" stroke-linecap="round" stroke-miterlimit="10" stroke-width="3"/><line x1="48.46452" y1="35.24976" x2="59.28995" y2="28.9997" fill="none" stroke="#231300" stroke-miterlimit="10" stroke-width="3"/><line x1="72.28115" y1="21.50016" x2="59.29036" y2="29.0004" fill="none" stroke="#231300" stroke-linecap="round" stroke-miterlimit="10" stroke-width="3"/><line x1="63.17276" y1="14.51105" x2="59.29036" y2="29.0004" fill="none" stroke="#231300" stroke-linecap="round" stroke-miterlimit="10" stroke-width="3"/><line x1="73.7797" y1="32.88281" x2="59.29036" y2="29.0004" fill="none" stroke="#231300" stroke-linecap="round" stroke-miterlimit="10" stroke-width="3"/></g></g></svg>