<svg width="35" height="35" viewBox="0 0 35 35" fill="none" xmlns="http://www.w3.org/2000/svg">
<g filter="url(#filter0_d)">
<circle cx="17.5" cy="16" r="13" fill="white"/>
</g>
<mask id="mask0" mask-type="alpha" maskUnits="userSpaceOnUse" x="5" y="3" width="25" height="26">
<circle cx="17.4999" cy="16" r="12.037" fill="white"/>
</mask>
<g mask="url(#mask0)">
<path d="M43.5 3H-8.98145V29H43.5V3Z" fill="#006600"/>
<path d="M43.5 3H-8.98145V21.5714H43.5V3Z" fill="white"/>
<path d="M43.5 3H-8.98145V10.4286H43.5V3Z" fill="#CC0000"/>
<path d="M16.2095 15.6533C16.2603 15.5654 16.3388 15.4964 16.4329 15.4568C16.5271 15.4172 16.6317 15.4092 16.7308 15.4341C16.83 15.459 16.9182 15.5153 16.982 15.5944C17.0458 15.6736 17.0817 15.7713 17.0842 15.8726V17.7294H17.4341V15.8739C17.4363 15.7725 17.472 15.6746 17.5357 15.5952C17.5994 15.5159 17.6876 15.4593 17.7868 15.4343C17.886 15.4093 17.9908 15.4172 18.085 15.4567C18.1793 15.4963 18.2579 15.5653 18.3088 15.6533C18.364 15.4886 18.3789 15.3133 18.3524 15.1417C18.3259 14.9702 18.2586 14.8073 18.1561 14.6666C18.0536 14.5258 17.9188 14.4112 17.7629 14.3322C17.6069 14.2531 17.4343 14.2119 17.2591 14.2119C17.084 14.2119 16.9113 14.2531 16.7554 14.3322C16.5994 14.4112 16.4647 14.5258 16.3622 14.6666C16.2597 14.8073 16.1924 14.9702 16.1658 15.1417C16.1393 15.3133 16.1543 15.4886 16.2095 15.6533" fill="#F8C300"/>
<path d="M16.4607 15.1697C16.6144 15.1385 16.7741 15.1558 16.9174 15.2193C17.0607 15.2827 17.1802 15.389 17.2593 15.5233C17.3382 15.3888 17.4576 15.2822 17.6009 15.2185C17.7442 15.1548 17.904 15.1373 18.0579 15.1684C18.0315 14.9772 17.936 14.8018 17.7892 14.6749C17.6424 14.548 17.4541 14.478 17.2593 14.478C17.0644 14.478 16.8762 14.548 16.7294 14.6749C16.5825 14.8018 16.4871 14.9772 16.4607 15.1684" fill="white"/>
<path d="M17.0843 16.9889C17.0604 17.2524 16.9623 17.5039 16.8012 17.7148C16.64 17.9258 16.4222 18.0876 16.1727 18.1818C15.9232 18.2759 15.652 18.2988 15.39 18.2476C15.1281 18.1964 14.8859 18.0733 14.6911 17.8924C14.6081 18.0995 14.4785 18.2851 14.3122 18.4352C14.146 18.5853 13.9474 18.6958 13.7315 18.7585C13.5157 18.8211 13.2882 18.8342 13.0665 18.7968C12.8448 18.7593 12.6346 18.6723 12.4519 18.5424C12.5884 19.8952 14.6356 19.6188 14.7878 18.3036C15.4311 19.422 16.8433 19.1018 17.2588 17.7316L17.0843 16.9889Z" fill="#F8C300"/>
<path d="M17.4343 16.9889C17.4581 17.2524 17.5562 17.5039 17.7174 17.7148C17.8786 17.9258 18.0963 18.0876 18.3458 18.1818C18.5953 18.2759 18.8665 18.2988 19.1285 18.2476C19.3905 18.1964 19.6327 18.0733 19.8274 17.8924C19.9105 18.0995 20.04 18.2851 20.2063 18.4352C20.3726 18.5853 20.5712 18.6958 20.787 18.7585C21.0029 18.8211 21.2303 18.8342 21.452 18.7968C21.6737 18.7593 21.8839 18.6723 22.0666 18.5424C21.9302 19.8952 19.883 19.6188 19.7308 18.3036C19.0874 19.422 17.6752 19.1018 17.2598 17.7316L17.4343 16.9889Z" fill="#F8C300"/>
<path d="M15.7164 19.3917C15.4308 20.0023 14.86 20.1071 14.3606 19.614C14.4865 19.529 14.6275 19.4683 14.7761 19.435C14.7358 19.2652 14.8198 19.0299 14.9348 18.9029C15.0573 18.9857 15.2274 19.1512 15.2707 19.344C15.572 19.3055 15.7164 19.3917 15.7164 19.3917V19.3917Z" fill="#F8C300"/>
<path d="M17.9503 19.3224C17.5685 19.8792 16.9882 19.8905 16.5762 19.3224C16.7138 19.2591 16.8621 19.2219 17.0135 19.2127C17.0017 19.0394 17.122 18.8201 17.2576 18.7135C17.3647 18.8145 17.5055 19.0056 17.5165 19.2028C17.82 19.2132 17.9481 19.3215 17.9481 19.3215L17.9503 19.3224Z" fill="#F8C300"/>
<path d="M20.1663 19.6144C19.6975 20.1019 19.1232 20.0196 18.8105 19.3939C18.9574 19.3533 19.1107 19.3407 19.2623 19.3566C19.2794 19.1833 19.4338 18.9865 19.5851 18.9029C19.6726 19.0203 19.7815 19.2314 19.76 19.4277C20.0579 19.487 20.1668 19.6144 20.1668 19.6144H20.1663Z" fill="#F8C300"/>
<path d="M13.6233 20.7541C15.996 20.0547 18.5228 20.0547 20.8955 20.7541" stroke="#F8C300" stroke-width="0.61695" stroke-miterlimit="3.43"/>
<path d="M17.2592 10.9859L17.8103 12.6655L16.3679 11.6272H18.1505L16.7082 12.6655L17.2592 10.9859Z" fill="#F8C300"/>
<path d="M14.6355 11.6823L15.1865 13.3623L13.7441 12.324H15.5268L14.0844 13.3623L14.6355 11.6823Z" fill="#F8C300"/>
<path d="M12.7143 13.5859L13.2649 15.2655L11.823 14.2272H13.6056L12.1633 15.2655L12.7143 13.5859Z" fill="#F8C300"/>
<path d="M12.0112 16.1859L12.5622 17.8655L11.1199 16.8272H12.9025L11.4601 17.8655L12.0112 16.1859Z" fill="#F8C300"/>
<path d="M19.8833 11.6823L19.3322 13.3623L20.7746 12.324H18.9919L20.4343 13.3623L19.8833 11.6823Z" fill="#F8C300"/>
<path d="M21.8039 13.5859L21.2533 15.2655L22.6952 14.2272H20.9126L22.355 15.2655L21.8039 13.5859Z" fill="#F8C300"/>
<path d="M22.5075 16.1859L21.9565 17.8655L23.3988 16.8272H21.6162L23.0586 17.8655L22.5075 16.1859Z" fill="#F8C300"/>
</g>
<defs>
<filter id="filter0_d" x="0.5" y="1" width="34" height="34" filterUnits="userSpaceOnUse" color-interpolation-filters="sRGB">
<feFlood flood-opacity="0" result="BackgroundImageFix"/>
<feColorMatrix in="SourceAlpha" type="matrix" values="0 0 0 0 0 0 0 0 0 0 0 0 0 0 0 0 0 0 127 0"/>
<feOffset dy="2"/>
<feGaussianBlur stdDeviation="2"/>
<feColorMatrix type="matrix" values="0 0 0 0 0 0 0 0 0 0 0 0 0 0 0 0 0 0 0.3 0"/>
<feBlend mode="normal" in2="BackgroundImageFix" result="effect1_dropShadow"/>
<feBlend mode="normal" in="SourceGraphic" in2="effect1_dropShadow" result="shape"/>
</filter>
</defs>
</svg>
