<svg xmlns="http://www.w3.org/2000/svg" width="94.0559" height="119.22559" viewBox="0 0 94.0559 119.22559"><title>home</title><path d="M38.25488,111.78418A13.27393,13.27393,0,1,1,51.52832,98.50977,13.28887,13.28887,0,0,1,38.25488,111.78418Zm0-23.57715A10.30323,10.30323,0,1,0,48.55859,98.50977,10.315,10.315,0,0,0,38.25488,88.207Z"/><path d="M58.957,119.22559a1.48561,1.48561,0,0,1-1.34082-2.124l2.71387-5.69726a6.07047,6.07047,0,0,1,5.45508-3.44336h4.59765V24.07813a13.31885,13.31885,0,0,0-26.63769,0V58.43848h.71093a6.98056,6.98056,0,0,1,6.97266,6.97265V82.53906l.14258.11914a20.70463,20.70463,0,0,1-13.31641,36.56739H14.959a8.25008,8.25008,0,0,1-7.9375-6.06055l-.08007-.29492H1.48535A1.48643,1.48643,0,0,1,0,111.38574V98.94238A1.48643,1.48643,0,0,1,1.48535,97.458H6.73047V90.07422A31.61961,31.61961,0,0,1,32.6543,58.95605l.32812-.06054V24.07813a24.08106,24.08106,0,0,1,48.16211,0V107.96h4.59668a6.06967,6.06967,0,0,1,5.45508,3.44434l2.71387,5.69726a1.48466,1.48466,0,0,1-1.34082,2.124Zm6.82813-8.29493a3.08464,3.08464,0,0,0-2.77344,1.752l-1.70215,3.57324H90.2168l-1.70215-3.57324a3.08464,3.08464,0,0,0-2.77344-1.752Zm-27.53028-30.166A17.74561,17.74561,0,1,0,56,98.50977,17.76608,17.76608,0,0,0,38.25488,80.76465Zm.11035-19.35547a28.69787,28.69787,0,0,0-28.665,28.665v20.92187a5.26533,5.26533,0,0,0,5.25878,5.25977H27.50879l-1.04785-.72852A20.70527,20.70527,0,0,1,47.87207,80.1709l.58691.30957V65.41113a4.0075,4.0075,0,0,0-4.00293-4.002ZM2.96973,109.90039H6.73047v-9.47266H2.96973ZM73.35254,107.96H78.1748V29.48828H73.35254ZM55.14258,3.06152A21.2544,21.2544,0,0,0,35.95215,24.07813V58.5293l.42578-.02637q.98584-.063,1.9873-.06445h2.41016V24.07813A16.269,16.269,0,0,1,55.22363,7.89844l.35547-.04V3.02246ZM58.54883,7.8584l.35547.04A16.269,16.269,0,0,1,73.35254,24.07813v2.44042H78.1748V24.0791A21.256,21.256,0,0,0,58.98535,3.06152l-.43652-.03906Z"/></svg>