<?xml version="1.0" encoding="utf-8"?>
<!-- Generator: Adobe Illustrator 22.0.1, SVG Export Plug-In . SVG Version: 6.00 Build 0)  -->
<svg version="1.1" id="Слой_1" xmlns="http://www.w3.org/2000/svg" xmlns:xlink="http://www.w3.org/1999/xlink" x="0px" y="0px"
	 viewBox="0 0 841.9 595.3" style="enable-background:new 0 0 841.9 595.3;" xml:space="preserve">
<style type="text/css">
	.st0{fill:#E50040;}
</style>
<path class="st0" d="M400.1,284.2h7.5c2.4,0,3.4-0.4,3.4-2.6v-1c0-2.2-1-2.6-3.4-2.6h-6.1c-1,0-1.4,0-1.4,1.3V284.2z M411.7,291.9
	l-4.1-4.9c-0.1,0-0.5,0-0.6,0h-6.9v4.9h-3.2v-12.7c0-3.1,1.3-4.2,4.2-4.2h6.9c3.9,0,6.2,1.7,6.2,5.6v0.8c0,2.8-1.2,4.3-3.1,5.1
	l4.5,5.4H411.7z"/>
<path class="st0" d="M420.1,284.4h8.2c-0.2-1.4-1.2-2.3-4.1-2.3C420.9,282.1,420.3,283.2,420.1,284.4 M417,285.7
	c0-3.9,1.8-6.4,7.2-6.4c4.9,0,7.2,2,7.2,6.4v1.3h-11.3c0.1,1.2,0.8,2.4,4.2,2.4c2.2,0,3.3-0.4,3.7-1.1h3.4c-0.8,2.5-3.1,3.9-7.1,3.9
	C419.2,292.1,417,290,417,285.7"/>
<path class="st0" d="M436.4,287.7c0,0.8,0.6,1.4,1.8,1.4h5.1c1.1,0,1.1,0,1.1-1v-1.6h-6.2C437,286.5,436.4,286.9,436.4,287.7
	 M439.8,279.3c5.1,0,7.7,2.1,7.7,6.7v2.1c0,2.9-1.7,3.9-4,3.9h-3.8c-3.5,0-6.3-0.8-6.3-4.3c0-2.9,2.5-3.8,6.3-3.8h4.5
	c-0.3-1-1.5-1.8-4.3-1.8c-1.7,0-3.3,0.2-5,0.9v-2.8C436.5,279.5,437.9,279.3,439.8,279.3"/>
<path class="st0" d="M453.2,286.4c0,2.4,1,2.7,3.4,2.7h2.7c1.2,0,1.5-0.3,1.5-1.4v-5.5h-4.3c-2.8,0-3.4,0.6-3.4,2.7V286.4z
	 M450.1,286.7v-2.1c0-3.8,2.1-5.2,5.9-5.2h4.8v-4.4h3.1v13c0,2.7-1.4,3.9-4,3.9h-3.9C452.3,291.9,450.1,290.5,450.1,286.7"/>
<polygon class="st0" points="473.6,296.3 470.3,296.3 472.5,292.2 465.5,279.4 468.8,279.4 474,289.1 479,279.4 482.2,279.4 "/>
<path class="st0" d="M402.1,304.5h5.3v2.6H402v9.9H399v-9.9h-2.1v-2.6h2.1c0.3-2.6,1.7-4.4,6.1-4.4h2.9v2.6h-2.9
	C403,302.7,402.2,303,402.1,304.5"/>
<path class="st0" d="M412.2,310.7c0,2.4,0.4,3.6,3.3,3.6h1.7c2.9,0,3.3-1.2,3.3-3.6c0-2.6-0.6-3.6-3.3-3.6h-1.7
	C412.4,307.1,412.2,308.6,412.2,310.7 M423.7,310.7c0,3.6-1.5,6.4-6.4,6.4h-1.9c-5.3,0-6.4-3.4-6.4-6.4c0-3,1-6.4,6.4-6.4h1.9
	C422.9,304.3,423.7,308.1,423.7,310.7"/>
<path class="st0" d="M426.2,308.5c0-2.2,1.5-4.1,4.2-4.1h4.4v2.8h-4.3c-0.8,0-1.3,0.3-1.3,1.2v8.5h-3.1V308.5z"/>
<path class="st0" d="M462.1,311.4c0,3.1-2.8,5.8-9.7,5.8c-6.5,0-8.9-2.5-9.6-5.5h3.4c0.4,1.2,1.5,2.6,6.2,2.6c4.8,0,6.3-1.4,6.3-2.9
	c0-0.9-0.5-1.8-3.5-1.8h-5.9c-4.5,0-6.4-1.7-6.4-4.2c0-3.2,2.9-5.7,9.1-5.7c5.8,0,8.5,2.7,9.3,5.1H458c-0.6-1.2-2.3-2.2-5.8-2.2
	c-4.2,0-5.8,1.3-5.8,2.7c0,0.7,0.3,1.5,3.1,1.5h5.9C460.5,306.8,462.1,309.1,462.1,311.4"/>
<polygon class="st0" points="470.1,311.6 467.8,313.6 467.8,317 464.7,317 464.7,300.1 467.8,300.1 467.8,309.9 474.1,304.5 
	478.6,304.5 472.5,309.6 479.2,317 475.1,317 "/>
<polygon class="st0" points="487.4,321.3 484.1,321.3 486.2,317.2 479.3,304.5 482.6,304.5 487.8,314.1 492.7,304.5 496,304.5 "/>
<path class="st0" d="M371.4,283.6c1.6-2.1,3-4.4,4.2-6.8c-2.6-1.2-5.6-1.9-8.6-1.9c-11.6,0-21.1,9.5-21.1,21.1
	c0,2.3,0.4,4.5,1.1,6.6C356.7,298.7,365.1,292.2,371.4,283.6"/>
<path class="st0" d="M348.2,305.8c3.4,6.6,10.2,11.1,18,11.4c2.5-3.6,4.7-7.4,6.3-11.4H348.2z"/>
<path class="st0" d="M352.5,303.1h21.1c2.5-7.2,3.5-14.9,3-22.5c-0.9,1.6-1.9,3.1-3,4.6C368,292.8,360.8,298.9,352.5,303.1"/>
<path class="st0" d="M379.1,278.8c0.9,8.8-0.3,17.8-3.3,26.1c-1.6,4.3-3.6,8.3-6.2,12.1c10.4-1.3,18.5-10.2,18.5-20.9
	C388.1,288.9,384.5,282.6,379.1,278.8"/>
</svg>
