<svg xmlns="http://www.w3.org/2000/svg" width="84.40039" height="84.09375" viewBox="0 0 84.40039 84.09375"><title>profit</title><path d="M1.94238,84.09375A1.94425,1.94425,0,0,1,0,82.15137,42.4007,42.4007,0,0,1,33.25586,40.92188a1.96362,1.96362,0,0,1,.418-.0459,1.94681,1.94681,0,0,1,1.626,2.999,1.94012,1.94012,0,0,1-1.22363.84473A38.42643,38.42643,0,0,0,3.9541,79.8916l-.01855.31738H80.46484l-.01855-.31738A38.42628,38.42628,0,0,0,50.32324,44.71973a1.9425,1.9425,0,0,1-.63574-3.53516,1.90363,1.90363,0,0,1,1.03711-.30957,1.88262,1.88262,0,0,1,.417.04688A42.40027,42.40027,0,0,1,84.40039,82.15137,1.94509,1.94509,0,0,1,82.457,84.09375Z" fill="#232629"/><path d="M42.2002,54.83594a1.94509,1.94509,0,0,1-1.94336-1.94239V32.9668l-.32227.02539c-1.09766.083-2.21582.126-3.32422.126-10.46,0-16.11621-3.46289-19.01953-6.36816C9.123,18.2832,11.50488,2.67285,11.61035,2.01172A1.9402,1.9402,0,0,1,13.22266.40039,39.01494,39.01494,0,0,1,18.98145.00488c5.749,0,13.709,1.10645,18.97851,6.376a18.88915,18.88915,0,0,1,3.96484,6.00488l.2754.6377.27539-.6377a18.89268,18.89268,0,0,1,3.96386-6.00488C51.71,1.10645,59.65723,0,65.39551,0a38.40458,38.40458,0,0,1,5.78222.40039,1.938,1.938,0,0,1,1.61133,1.61133c.10547.66113,2.48731,16.27148-5.98144,24.73828C63.9043,29.65527,58.24805,33.11816,47.79,33.11816c-1.10938,0-2.22754-.043-3.3252-.126l-.32226-.02539V52.89355A1.94426,1.94426,0,0,1,42.2002,54.83594ZM56.624,14.62305a1.94246,1.94246,0,0,1,1.373,3.3164L46.72754,29.21l1.07812.00781c5.03614,0,11.94434-.90527,16.25489-5.21484,5.59082-5.59277,5.41308-15.624,5.07715-19.67676l-.02051-.2539-.25391-.02051c-1.11816-.09278-2.26465-.13965-3.4082-.13965-5.041,0-11.95606.90527-16.26856,5.2168-2.791,2.79-4.48144,6.98339-5.02734,12.46289.1084,1.25781.16309,2.51855.16309,3.80371v.72461L55.25,15.19238A1.92771,1.92771,0,0,1,56.624,14.62305ZM19.22363,3.88574c-1.1875,0-2.42871.05469-3.68847.16406l-.25293.02149-.02051.25293c-.33692,4.05273-.5166,14.084,5.07617,19.67871,4.30859,4.30859,11.22461,5.21289,16.26856,5.21289l1.06347-.00781L26.40234,17.93945a1.94213,1.94213,0,1,1,2.7461-2.74707L40.07715,26.12012v-.72461c0-1.28711.05566-2.54785.16406-3.74707-.54687-5.53711-2.23828-9.73047-5.02832-12.51953C33.63574,7.55176,28.91992,3.88574,19.22363,3.88574Z" fill="#232629"/></svg>