<svg id="Layer_1" data-name="Layer 1" xmlns="http://www.w3.org/2000/svg" viewBox="0 0 198.7 78.04"><defs><style>.cls-1{fill:#ec174c;}</style></defs><title>r4s_compact_logo</title><path class="cls-1" d="M163.9,35.86h17.28c16.45,0,17.52,8.15,17.52,12,0,4.86-2.54,15.7-26.18,15.72-19.05,0-24.18-7.83-25.9-14.53h5.27c1.65,5.09,6,9.78,20.63,9.8,15.43,0,21-5.34,21-10.66,0-2.83-1.15-7.55-12.48-7.55H163.9c-11.74,0-16.57-3.92-16.57-10.88,0-7.37,6.56-15.3,25.24-15.3,13.18,0,21.71,4.47,24.72,13.35h-5.37c-2.75-5.92-9.07-8.53-19.36-8.62-15.84,0-20,5.72-20,10.51C152.52,31.73,152.74,35.86,163.9,35.86Z"/><path class="cls-1" d="M36.26,47.05c6.14-1.65,9.88-5.95,9.88-14.25V30.33c0-11.14-6.73-15.08-17-15.08H10.78C3.48,15.25,0,17.5,0,26.08V62.79H5V47.88H29.14c.59,0,1.16,0,1.73,0l12.3,14.95h6ZM28.68,43.1H5V25.87C5,20.19,6.16,20,11.22,20H28.68c9.18,0,12.46,2.77,12.46,10v3C41.14,40.33,37.86,43.1,28.68,43.1Z"/><path class="cls-1" d="M71.18,52h38.94a103.92,103.92,0,0,0,5.52-41.6q-2.58,4.37-5.56,8.45A108.31,108.31,0,0,1,71.18,52Z"/><path class="cls-1" d="M63.25,57A39,39,0,0,0,96.6,78,103.56,103.56,0,0,0,108.24,57Z"/><path class="cls-1" d="M106.08,16a103.17,103.17,0,0,0,7.78-12.53,39,39,0,0,0-53,47.82A103.34,103.34,0,0,0,106.08,16Z"/><path class="cls-1" d="M120.31,7.1a108.77,108.77,0,0,1-6.13,48.24,108.49,108.49,0,0,1-11.39,22.42A39,39,0,0,0,120.31,7.1Z"/></svg>