<svg xmlns="http://www.w3.org/2000/svg" width="333.36699" height="45.2381" viewBox="0 0 333.36699 45.2381"><title>R4S_Logo</title><g id="Layer_2" data-name="Layer 2"><g id="Слой_1" data-name="Слой 1"><path d="M79.0972,33.031l-5.8723-7.0201c-.1158.0062-.7786.0093-.8991.0093H62.4214V33.031H57.7835V14.7887c0-4.4401,1.9343-6.0437,6.0221-6.0437h9.9632c5.642,0,8.9527,2.5089,8.9527,8.0459v1.1834c0,3.9797-1.7025,6.2229-4.4045,7.2673l6.5226,7.7894ZM62.4214,21.8922H73.1431c3.4142,0,4.9421-.6242,4.9421-3.8005V16.6735c0-3.1239-1.4475-3.8005-4.9421-3.8005H64.4205c-1.4522,0-1.9991.0463-1.9991,1.8137Z" fill="#ed174c"/><path d="M86.7908,24.0365c0-5.6636,2.5677-9.2386,10.3757-9.2386,7.1143,0,10.388,2.8674,10.388,9.2479v1.8137H91.2495c.2054,1.6624,1.1556,3.3865,5.9819,3.3865,3.218,0,4.7042-.584,5.3871-1.5666h4.8788c-1.1942,3.575-4.5235,5.5957-10.2659,5.5957C89.9672,33.2689,86.7908,30.2564,86.7908,24.0365Zm4.4648-1.9126h11.8403c-.2735-1.9435-1.789-3.2968-5.9047-3.2968C92.4112,18.8271,91.4967,20.44,91.2556,22.1239Z" fill="#ed174c"/><path d="M119.4751,14.7979c7.3785,0,11.043,3.0497,11.043,9.6063v3.0435c0,4.1744-2.4487,5.5833-5.7641,5.5833h-5.486c-5.0426,0-9.013-1.1339-9.013-6.1735,0-4.199,3.629-5.4442,9.0115-5.4442h6.4392c-.4557-1.4646-2.2169-2.5862-6.2013-2.5862a17.7454,17.7454,0,0,0-7.2364,1.3564V16.1358A18.15049,18.15049,0,0,1,119.4751,14.7979Zm-4.7955,12.1678c0,1.2143.8667,1.9867,2.5213,1.9867h7.2766c1.5866,0,1.616-.0247,1.616-1.4429V25.1798h-8.8926C115.5463,25.1798,114.6796,25.8101,114.6796,26.9657Z" fill="#ed174c"/><path d="M134.4252,25.5289V22.5441c0-5.4937,3.0837-7.5021,8.5341-7.5021h6.9259V8.745h4.4246V27.4199c0,3.8994-2.013,5.6111-5.7934,5.6111h-5.5571C137.5305,33.031,134.4252,31.0288,134.4252,25.5289Zm4.4246-.4573c0,3.3834,1.3735,3.8808,4.9144,3.8808h3.9504c1.7395,0,2.1706-.3615,2.1706-1.9898v-7.842h-6.121c-3.9905,0-4.9144.8775-4.9144,3.8808Z" fill="#ed174c"/><path d="M168.1677,39.3281h-4.6888l3.0465-5.9541L156.5113,15.042h4.7352l7.5685,13.8517,7.0819-13.8517h4.6888Z" fill="#ed174c"/><path d="M198.21469,15.042h7.5887v3.7758h-7.6443V33.031H193.7345V18.8178h-2.9956V15.042h3.0574c.363-3.7356,2.4626-6.297,8.81839-6.297h4.1172v3.7757h-4.1157C199.48619,12.5207,198.448,12.8977,198.21469,15.042Z" fill="#ed174c"/><path d="M229.27369,24.0365c0,5.2033-2.1675,9.2386-9.1351,9.2386h-2.7175c-7.6674,0-9.1351-4.9252-9.1351-9.2386,0-4.3196,1.4646-9.2386,9.1351-9.2386h2.7175C228.23709,14.7979,229.27369,20.3287,229.27369,24.0365Zm-16.5105,0c0,3.4792.5948,5.2095,4.7722,5.2095h2.4904c4.213,0,4.77071-1.7767,4.77071-5.2095,0-3.7943-.83581-5.2094-4.77071-5.2094h-2.4904C213.07989,18.8271,212.76319,20.9436,212.76319,24.0365Z" fill="#ed174c"/><path d="M232.95369,20.8725a5.63444,5.63444,0,0,1,6.0066-5.8305h6.3805v4.0817h-6.1302c-1.2189,0-1.8323.4975-1.8323,1.6561V33.031h-4.4246Z" fill="#ed174c"/><path d="M284.56619,25.0778c0,4.4679-3.9781,8.3703-13.93669,8.3734-9.31891,0-12.77951-3.6491-13.76211-7.845h4.8897c.6056,1.7117,2.1598,3.7417,8.87241,3.751,6.90119-.0062,9.13359-2.0176,9.13359-4.1218-.0047-1.2421-.7555-2.6356-4.9917-2.6356h-8.4692c-6.4145,0-9.13969-2.4503-9.13969-6.0994,0-4.61,4.18209-8.1788,13.15959-8.1788,8.3812,0,12.1832,3.8562,13.3187,7.289h-4.9082c-.93-1.7582-3.252-3.1764-8.4136-3.1949-6.0684.0062-8.3518,1.9064-8.3518,3.9179,0,.9578.3939,2.1381,4.46331,2.1381h8.41819C282.31529,18.4717,284.56619,21.6728,284.56619,25.0778Z" fill="#ed174c"/><path d="M296.15619,25.3312l-3.4205,2.9075V33.031h-4.4246V8.745h4.4246V22.8191l9.1505-7.7771h6.3744l-8.7705,7.4558L309.1535,33.031h-5.93241Z" fill="#ed174c"/><path d="M320.949,39.3281h-4.6889l3.0466-5.9541-10.0141-18.332h4.7351l7.5686,13.8517,7.0819-13.8517h4.6888Z" fill="#ed174c"/><path d="M27.3628,9.2487a60.71471,60.71471,0,0,0,4.5143-7.2643A22.61594,22.61594,0,0,0,1.1383,29.7018,59.88717,59.88717,0,0,0,27.3628,9.2487Z" fill="#ed174c"/><path d="M2.5369,33.0194a22.64878,22.64878,0,0,0,19.335,12.2187,60.33358,60.33358,0,0,0,6.7462-12.2187Z" fill="#ed174c"/><path d="M7.1319,30.1502H29.7062A60.25338,60.25338,0,0,0,32.908,6.0338c-1.0006,1.6854-2.0778,3.3241-3.2235,4.9016A62.79787,62.79787,0,0,1,7.1319,30.1502Z" fill="#ed174c"/><path d="M35.6169,4.1157a63.11355,63.11355,0,0,1-3.5561,27.9655A63.04123,63.04123,0,0,1,25.4585,45.074,22.61275,22.61275,0,0,0,35.6169,4.1157Z" fill="#ed174c"/></g></g></svg>