<?xml version="1.0" encoding="utf-8"?>
<!-- Generator: Adobe Illustrator 22.1.0, SVG Export Plug-In . SVG Version: 6.00 Build 0)  -->
<svg version="1.1" id="icons" xmlns="http://www.w3.org/2000/svg" xmlns:xlink="http://www.w3.org/1999/xlink" x="0px" y="0px"
	 viewBox="0 0 77.4 100" style="enable-background:new 0 0 77.4 100;" xml:space="preserve">
<style type="text/css">
	.st0{fill:#232629;}
</style>
<title>r&amp;amp;d</title>
<path class="st0" d="M66.1,97.8V71.6c1.7-3.4,11.3-22.8,11.3-36v-1.8C77.4,15.2,62.3,0,43.6,0S9.8,15.1,9.8,33.8c0,0,0,0,0,0v1.8
	L0.2,56.8c-0.5,1.1,0,2.4,1.1,2.9c0.3,0.1,0.6,0.2,0.9,0.2h7.6v11.3c0,6,4.9,10.8,10.8,10.8h7.2v15.8c0,1.2,1,2.2,2.2,2.2
	c1.2,0,2.2-1,2.2-2.2V82h2.4c1.2,0,2.2-1,2.2-2.2s-1-2.2-2.2-2.2h-14c-3.6,0-6.5-2.9-6.5-6.5V57.7c0-1.2-1-2.2-2.2-2.2c0,0,0,0,0,0
	H5.6L14,37c0.1-0.3,0.2-0.6,0.2-0.9v-2.3c0-16.3,13.2-29.4,29.4-29.4C59.8,4.4,73,17.5,73,33.8c0,0,0,0,0,0v1.8
	c0,13.2-10.9,34.2-11.1,34.5c-0.2,0.3-0.3,0.7-0.3,1v26.7c0,1.2,1,2.2,2.2,2.2S66.1,99,66.1,97.8L66.1,97.8z"/>
<path class="st0" d="M43.1,29.1c1.2,0,2.2-1,2.2-2.2c0,0,0,0,0,0V14.2c0-1.2-1-2.2-2.2-2.2s-2.2,1-2.2,2.2v12.6
	C40.9,28.1,41.9,29.1,43.1,29.1C43.1,29.1,43.1,29.1,43.1,29.1z"/>
<path class="st0" d="M45.3,38.8c0-1.2-1-2.2-2.2-2.2s-2.2,1-2.2,2.2v12.6c0,1.2,1,2.2,2.2,2.2s2.2-1,2.2-2.2V38.8z"/>
<path class="st0" d="M46.9,32.8c0,1.2,1,2.2,2.2,2.2c0,0,0,0,0,0h12.6c1.2,0,2.2-1,2.2-2.2s-1-2.2-2.2-2.2l0,0H49.1
	C47.9,30.7,46.9,31.6,46.9,32.8C46.9,32.8,46.9,32.8,46.9,32.8z"/>
<path class="st0" d="M37.1,30.7H24.5c-1.2,0-2.2,1-2.2,2.2s1,2.2,2.2,2.2h12.6c1.2,0,2.2-1,2.2-2.2S38.3,30.7,37.1,30.7z"/>
<path class="st0" d="M53.2,25.8l4.6-4.6c0.9-0.9,0.9-2.2,0-3.1c-0.9-0.9-2.2-0.9-3.1,0c0,0,0,0,0,0l-4.6,4.6c-0.9,0.9-0.9,2.2,0,3.1
	C51,26.7,52.3,26.7,53.2,25.8C53.2,25.8,53.2,25.8,53.2,25.8z"/>
<path class="st0" d="M33,39.9l-4.6,4.6c-0.9,0.9-0.9,2.2,0,3.1c0.9,0.9,2.2,0.9,3.1,0c0,0,0,0,0,0l4.6-4.6c0.9-0.9,0.9-2.2,0-3.1
	C35.2,39,33.8,39,33,39.9z"/>
<path class="st0" d="M50.1,39.9c-0.9,0.9-0.9,2.2,0,3.1c0,0,0,0,0,0l4.6,4.6c0.9,0.9,2.2,0.9,3.1,0c0.9-0.9,0.9-2.2,0-3.1
	c0,0,0,0,0,0l-4.6-4.6C52.3,39,51,39,50.1,39.9C50.1,39.9,50.1,39.9,50.1,39.9z"/>
<path class="st0" d="M34.5,26.5c1.2,0,2.2-1,2.2-2.2c0-0.6-0.2-1.1-0.6-1.5l-4.6-4.6c-0.9-0.9-2.2-0.9-3.1,0c-0.9,0.9-0.9,2.2,0,3.1
	l4.6,4.6C33.4,26.2,33.9,26.5,34.5,26.5z"/>
</svg>
