<svg xmlns="http://www.w3.org/2000/svg" xmlns:xlink="http://www.w3.org/1999/xlink" width="36" height="63.11667" viewBox="0 0 36 63.11667"><defs><linearGradient id="a" x1="-656.24804" y1="31.9302" x2="-692.18264" y2="31.9302" gradientTransform="matrix(-1, 0, 0, 1, -656.21533, 0)" gradientUnits="userSpaceOnUse"><stop offset="0" stop-color="#ff3600"/><stop offset="0.19413" stop-color="#f83705"/><stop offset="0.47324" stop-color="#e53813"/><stop offset="0.80219" stop-color="#c63b2a"/><stop offset="1" stop-color="#b03d3a"/></linearGradient><linearGradient id="b" x1="-656.21533" y1="34.54388" x2="-692.21533" y2="34.54388" xlink:href="#a"/><linearGradient id="c" x1="-6.38626" y1="48.80663" x2="30.6239" y2="48.80663" gradientTransform="matrix(1, 0, 0, 1, 0, 0)" xlink:href="#a"/><linearGradient id="d" x1="-656.21533" y1="48.80663" x2="-674.21534" y2="48.80663" xlink:href="#a"/><linearGradient id="e" x1="-1.58916" y1="21.17072" x2="33.29802" y2="21.17072" gradientTransform="matrix(1, 0, 0, 1, 0, 0)" xlink:href="#a"/><linearGradient id="f" x1="-656.24804" y1="21.17072" x2="-674.21534" y2="21.17072" xlink:href="#a"/><linearGradient id="g" x1="0.03271" y1="31.75611" x2="35.96731" y2="31.75611" gradientTransform="matrix(1, 0, 0, 1, 0, 0)" xlink:href="#a"/></defs><title>red_crystal</title><g style="isolation:isolate"><polygon points="35.967 31.968 18.084 21.519 0.033 31.968 18 42.341 35.967 31.968" fill="url(#a)"/><polygon points="36 34.534 18.033 24.161 0 34.497 18 44.927 36 34.534" opacity="0.25" fill="url(#b)"/><polygon points="36 34.534 18 44.927 0 34.497 18 63.117 36 34.534" opacity="0.65" fill="url(#c)"/><polygon points="0 34.497 18 44.927 18 63.117 0 34.497" opacity="0.5" fill="url(#d)"/><polygon points="18 42.341 35.967 31.968 18 0 0.033 31.968 18 42.341" fill="url(#e)"/><polygon points="0.033 31.968 18 0 18 42.341 0.033 31.968" fill="url(#f)"/><polygon points="18 42.341 0.033 31.968 18 21.171 35.967 31.968 18 42.341" opacity="0.67" fill="url(#g)" style="mix-blend-mode:multiply"/></g></svg>