<svg xmlns="http://www.w3.org/2000/svg" width="38.02694" height="33.46223" viewBox="0 0 38.02694 33.46223"><title>skybutton</title><rect x="9.10606" y="4.54135" width="19.81482" height="36.02694" rx="9.9074" ry="9.9074" transform="translate(-3.54135 41.56829) rotate(-90)" fill="none" stroke="#232629" stroke-linecap="round" stroke-linejoin="round" stroke-width="2"/><circle cx="26.65594" cy="22.55482" r="5.40404" fill="none" stroke="#232629" stroke-linecap="round" stroke-linejoin="round" stroke-width="2"/><path d="M4.42847,3.7087c.05736-.07011.1211-.13385.1912-.20395a8.532,8.532,0,0,1,12.0776,0c.06373.0701.13384.13384.1912.20395" fill="none" stroke="#232629" stroke-linecap="round" stroke-linejoin="round" stroke-width="2"/><path d="M15.02347,7.55659c-.04-.05-.09-.09-.13-.14-.13-.13-.26-.24-.39-.36a5.99545,5.99545,0,0,0-3.85-1.4,5.91454,5.91454,0,0,0-3.84,1.4,4.48209,4.48209,0,0,0-.4.36c-.04.05-.09.09-.13.14" fill="none" stroke="#232629" stroke-linecap="round" stroke-linejoin="round" stroke-width="2"/></svg>