<svg xmlns="http://www.w3.org/2000/svg" xmlns:xlink="http://www.w3.org/1999/xlink" width="80" height="140.25871" viewBox="0 0 80 140.25871"><defs><linearGradient id="a" x1="-639.05749" y1="70.95568" x2="-559.20296" y2="70.95568" gradientTransform="matrix(-1, 0, 0, 1, -559.13011, 0)" gradientUnits="userSpaceOnUse"><stop offset="0" stop-color="#dbb314"/><stop offset="0.19854" stop-color="#deba19"/><stop offset="0.48403" stop-color="#e7cd26"/><stop offset="0.82048" stop-color="#f6ec3b"/><stop offset="0.99658" stop-color="#ffff48"/></linearGradient><linearGradient id="b" x1="-639.13011" y1="76.76368" x2="-559.13011" y2="76.76368" xlink:href="#a"/><linearGradient id="c" x1="2.16152" y1="115.89148" x2="72.2093" y2="86.70486" gradientTransform="matrix(1, 0, 0, 1, 0, 0)" xlink:href="#a"/><linearGradient id="d" x1="-599.13034" y1="108.45872" x2="-559.13011" y2="108.45872" xlink:href="#a"/><linearGradient id="e" x1="44.52771" y1="95.98247" x2="28.47511" y2="7.54717" gradientTransform="matrix(1, 0, 0, 1, 0, 0)" xlink:href="#a"/><linearGradient id="f" x1="-599.13034" y1="47.04586" x2="-559.20296" y2="47.04586" xlink:href="#a"/><linearGradient id="g" x1="79.92738" y1="70.56879" x2="0.07285" y2="70.56879" gradientTransform="matrix(1, 0, 0, 1, 0, 0)" xlink:href="#a"/></defs><title>yellow_crystal</title><g style="isolation:isolate"><polygon points="79.927 71.04 40.186 47.82 0.073 71.04 40 94.092 79.927 71.04" fill="url(#a)"/><polygon points="80 76.743 40.073 53.691 0 76.659 40 99.837 80 76.743" opacity="0.25" fill="url(#b)"/><polygon points="80 76.743 40 99.837 0 76.659 40 140.259 80 76.743" opacity="0.65" fill="url(#c)"/><polygon points="0 76.659 40 99.837 40 140.259 0 76.659" opacity="0.5" fill="url(#d)"/><polygon points="40 94.092 79.927 71.04 40 0 0.073 71.04 40 94.092" fill="url(#e)"/><polygon points="0.073 71.04 40 0 40 94.092 0.073 71.04" fill="url(#f)"/><polygon points="40 94.092 0.073 71.04 40 47.046 79.927 71.04 40 94.092" opacity="0.67" fill="url(#g)" style="mix-blend-mode:multiply"/></g></svg>