<svg width="35" height="35" viewBox="0 0 35 35" fill="none" xmlns="http://www.w3.org/2000/svg">
<g filter="url(#filter0_d)">
<circle cx="17.5" cy="15.5" r="13.5" fill="white"/>
</g>
<mask id="mask0" mask-type="alpha" maskUnits="userSpaceOnUse" x="5" y="3" width="25" height="25">
<circle cx="17.5" cy="15.5" r="12.5" fill="white"/>
</mask>
<g mask="url(#mask0)">
<path d="M43 2.88449H-9V28.8845H43V2.88449Z" fill="#002395"/>
<path d="M4.78 2.88449H30.78V28.8845L4.78 2.88449Z" fill="#FECB00"/>
<path d="M1.9005 7.83751L3.35 3.37201L4.7995 7.83751L0.997 5.07501H5.6965L1.9005 7.83751Z" fill="white"/>
<path d="M5.1505 11.0875L6.6 6.62199L8.0495 11.0875L4.247 8.32499H8.9465L5.1505 11.0875Z" fill="white"/>
<path d="M8.4005 14.3375L9.85 9.87199L11.2995 14.3375L7.497 11.575H12.1965L8.4005 14.3375Z" fill="white"/>
<path d="M11.6505 17.5875L13.1 13.122L14.5495 17.5875L10.747 14.825H15.4465L11.6505 17.5875Z" fill="white"/>
<path d="M14.9005 20.8375L16.35 16.372L17.7995 20.8375L13.997 18.075H18.6965L14.9005 20.8375Z" fill="white"/>
<path d="M18.1505 24.0875L19.6 19.622L21.0495 24.0875L17.247 21.325H21.9465L18.1505 24.0875Z" fill="white"/>
<path d="M21.4005 27.3375L22.85 22.872L24.2995 27.3375L20.497 24.575H25.1965L21.4005 27.3375Z" fill="white"/>
<path d="M24.6505 30.5875L26.1 26.122L27.5495 30.5875L23.747 27.825H28.4465L24.6505 30.5875Z" fill="white"/>
</g>
<defs>
<filter id="filter0_d" x="0" y="0" width="35" height="35" filterUnits="userSpaceOnUse" color-interpolation-filters="sRGB">
<feFlood flood-opacity="0" result="BackgroundImageFix"/>
<feColorMatrix in="SourceAlpha" type="matrix" values="0 0 0 0 0 0 0 0 0 0 0 0 0 0 0 0 0 0 127 0"/>
<feOffset dy="2"/>
<feGaussianBlur stdDeviation="2"/>
<feColorMatrix type="matrix" values="0 0 0 0 0 0 0 0 0 0 0 0 0 0 0 0 0 0 0.3 0"/>
<feBlend mode="normal" in2="BackgroundImageFix" result="effect1_dropShadow"/>
<feBlend mode="normal" in="SourceGraphic" in2="effect1_dropShadow" result="shape"/>
</filter>
</defs>
</svg>
