<svg width="35" height="35" viewBox="0 0 35 35" fill="none" xmlns="http://www.w3.org/2000/svg">
<g filter="url(#filter0_d)">
<circle cx="17.5" cy="16" r="13" fill="white"/>
</g>
<mask id="mask0" mask-type="alpha" maskUnits="userSpaceOnUse" x="5" y="3" width="25" height="26">
<circle cx="17.4999" cy="16" r="12.037" fill="white"/>
</mask>
<g mask="url(#mask0)">
<path d="M42.0554 3.96297H-7.05566V29H42.0554V3.96297Z" fill="#CC092F"/>
<path d="M25.6851 3.96297H-7.05566V29H25.6851V3.96297Z" fill="#FFD200"/>
<path d="M9.31471 3.96297H-7.05566V29H9.31471V3.96297Z" fill="#0046AE"/>
<path d="M16.073 9.06051C15.9989 9.05715 15.9256 9.07759 15.8634 9.11892C15.8992 9.12969 15.9306 9.15205 15.9528 9.18262C15.975 9.21319 15.9868 9.2503 15.9865 9.28834V9.49504H15.7838C15.7467 9.49538 15.7104 9.48349 15.6805 9.46113C15.6505 9.43877 15.6285 9.40714 15.6176 9.37096C15.5801 9.43566 15.5603 9.50945 15.5603 9.58461C15.5603 9.65978 15.5801 9.73356 15.6176 9.79826C15.6282 9.76178 15.6501 9.72979 15.6801 9.70715C15.7101 9.68452 15.7465 9.67245 15.7838 9.6728H15.9865V10.6654C15.9868 10.7019 15.976 10.7376 15.9554 10.7676C15.9349 10.7975 15.9057 10.8201 15.8719 10.8323C15.9685 10.8459 16.0517 10.9781 16.0743 11.0504C16.0973 10.9781 16.1802 10.8459 16.2768 10.8323C16.2427 10.8204 16.2132 10.7979 16.1924 10.7679C16.1715 10.738 16.1605 10.7021 16.1608 10.6654V9.6728H16.3636C16.4007 9.67241 16.4369 9.68429 16.4669 9.70665C16.4968 9.72902 16.5189 9.76067 16.5297 9.79687C16.5672 9.73217 16.587 9.65839 16.587 9.58322C16.587 9.50806 16.5672 9.43427 16.5297 9.36957C16.5191 9.40603 16.4972 9.43798 16.4672 9.46057C16.4372 9.48316 16.4008 9.49517 16.3636 9.49476H16.1608V9.28834C16.1605 9.25049 16.1721 9.21353 16.194 9.18299C16.216 9.15246 16.247 9.12998 16.2825 9.11892C16.2204 9.07759 16.1471 9.05715 16.073 9.06051V9.06051Z" fill="black"/>
<path d="M16.0728 9.10333C16.032 9.10343 15.9915 9.11019 15.9527 9.12336C15.9762 9.14371 15.9951 9.16898 16.0081 9.19746C16.0211 9.22593 16.0279 9.25692 16.0281 9.28833V9.49502C16.0283 9.49789 16.0283 9.50078 16.0281 9.50365V9.53619H15.9959L15.9877 9.53786H15.785C15.7545 9.53762 15.7244 9.53074 15.6967 9.51769C15.6691 9.50464 15.6444 9.48572 15.6245 9.4622C15.6109 9.50163 15.6038 9.54308 15.6035 9.58488C15.6037 9.62646 15.6102 9.66776 15.6229 9.70728C15.6429 9.68329 15.6677 9.66398 15.6957 9.65068C15.7236 9.63738 15.7541 9.6304 15.785 9.63022H16.0305C16.0305 9.63467 16.0305 9.63885 16.0305 9.64302V9.66583C16.0308 9.6687 16.0308 9.67159 16.0305 9.67446V10.667C16.0296 10.6969 16.0223 10.7262 16.0094 10.753C15.9964 10.7797 15.9779 10.8034 15.9552 10.8223C15.9854 10.8413 16.0122 10.8654 16.0346 10.8935C16.051 10.9166 16.0651 10.9414 16.0766 10.9675C16.0881 10.9414 16.1022 10.9166 16.1186 10.8935C16.1408 10.8661 16.1671 10.8425 16.1967 10.8237C16.1739 10.8045 16.1554 10.7807 16.1424 10.7537C16.1294 10.7266 16.1222 10.6971 16.1214 10.667V9.63161H16.1549C16.1576 9.63088 16.1603 9.63042 16.1631 9.63022H16.3658C16.3963 9.63047 16.4263 9.63732 16.454 9.65032C16.4817 9.66332 16.5063 9.68216 16.5263 9.70561C16.5392 9.66589 16.5456 9.62424 16.5451 9.58237C16.5449 9.54079 16.5384 9.4995 16.5257 9.45997C16.5057 9.48388 16.4809 9.50312 16.4529 9.51637C16.4249 9.52962 16.3945 9.53657 16.3636 9.53675H16.1609C16.1582 9.53702 16.1555 9.53702 16.1527 9.53675H16.1205V9.50392C16.1203 9.50115 16.1203 9.49835 16.1205 9.49558V9.28888C16.1208 9.25783 16.1275 9.22717 16.1402 9.19896C16.153 9.17076 16.1715 9.14565 16.1945 9.12531C16.1559 9.11149 16.1153 9.10425 16.0744 9.10389" fill="#F5D402"/>
<path d="M18.6079 12.6981C18.4896 12.6163 18.3885 12.5112 18.3105 12.389C18.1365 12.1044 18.0631 11.7553 18.0631 11.4006C18.0631 11.2507 18.2268 11.0818 18.2268 10.9605C18.2279 10.8625 18.2223 10.7645 18.2101 10.6673C18.2685 10.6754 18.3708 10.7811 18.3708 10.7811C18.3708 10.7811 18.3673 10.4767 18.2729 10.4236C18.2729 10.4236 18.3111 10.3836 18.4489 10.3794C18.4101 10.2795 18.2186 10.1568 18.2186 10.1568C18.2309 10.1372 18.2483 10.1215 18.2688 10.1112C18.3217 10.0846 18.3782 10.0659 18.4363 10.0556C18.3726 10.0415 18.3097 10.0239 18.2478 10.003C18.0694 9.94221 17.895 9.86992 17.7256 9.78656C17.5089 9.67564 17.2695 9.61845 17.0271 9.61965C16.9294 9.61965 16.7859 9.62243 16.7016 9.67946C16.6246 9.73176 16.6309 9.79936 16.6039 9.82328C16.5403 9.87892 16.4315 9.87753 16.3791 9.87753C16.0397 9.87753 16.0269 10.2478 16.0269 10.2478C16.0269 10.2478 16.1139 10.1137 16.2672 10.1137C16.5223 10.1137 16.7155 10.2556 16.7155 10.3084C16.7155 10.3299 16.6882 10.334 16.6882 10.334C16.5215 10.334 16.27 10.2361 16.1365 10.2314V10.2984C16.4348 10.4041 16.7368 10.5541 16.7368 11.2142C16.7368 11.6298 16.6879 12.0541 16.4839 12.3876C16.4057 12.5102 16.3044 12.6157 16.1859 12.6981L17.3968 12.9206L18.6079 12.6981Z" fill="black"/>
<path d="M17.3971 12.4199L16.1862 12.6981C16.1317 12.6811 15.8722 12.5991 15.6902 12.4959C15.3704 12.3142 15.2045 12.1342 14.8242 12.1156V11.8207C14.8242 11.6632 14.8801 11.5214 14.8801 11.3709C14.72 11.3269 14.2753 10.7725 13.8649 10.5263C13.2611 10.9249 12.7935 11.5795 12.7935 11.8805C12.7935 11.8805 12.8117 18.3487 12.7935 20.602C12.7935 20.7319 12.7168 20.9155 12.7168 20.9155C12.937 20.8204 13.3411 20.2568 13.4262 20.0423V20.1449C13.759 19.9903 14.003 19.5836 14.1121 19.373C14.114 19.4036 14.1189 19.4798 14.1189 19.4798C14.4163 19.2141 14.795 17.6437 14.795 17.6437L15.4266 18.2747C15.4266 18.2747 15.1985 18.7476 15.1096 18.8311C15.1518 18.8359 15.1943 18.8382 15.2367 18.838C15.1953 18.8989 14.8782 19.3646 14.7786 19.5402C14.6856 19.7046 14.6201 19.6314 14.4769 19.6314C14.3585 19.6314 14.0895 19.8239 14.0455 19.9018C13.9974 19.9814 13.9693 20.0719 13.9637 20.1653C13.9637 20.2554 14.0573 20.3789 14.0573 20.3789C14.0606 20.3571 14.0701 20.3368 14.0845 20.3205C14.0845 20.3205 14.3301 20.6329 14.3667 20.6738C14.3939 20.7055 14.5208 20.7264 14.565 20.6852C14.6761 20.5823 14.7833 20.5105 14.8821 20.3619C14.9328 20.2854 14.9366 20.1978 14.9953 20.1155C15.1906 19.8406 15.5794 19.3143 15.6684 19.1941C15.6744 19.2275 15.6796 19.2556 15.685 19.2895C15.786 19.082 16.2705 18.6856 16.2705 18.6856L16.7772 18.9234C16.7772 18.9234 15.831 21.1417 14.9909 21.4828C14.9909 21.4828 15.3562 21.6411 15.8051 21.8786C15.8705 21.9134 15.9379 21.9507 16.0062 21.9882C16.0629 21.919 16.1224 21.8419 16.1808 21.7618C16.4492 21.3957 16.7117 20.9714 16.7117 20.9714C16.73 21.0827 16.5881 21.4221 16.3486 21.8416C16.3014 21.9251 16.2523 22.0105 16.1977 22.0981C16.2585 22.1334 16.3188 22.1691 16.3791 22.2063C16.8238 22.479 17.2413 22.7925 17.396 23.0807L17.5051 22.8025L17.396 22.5243V12.7877L17.4506 12.6486L17.3971 12.4199Z" fill="black"/>
<path d="M17.3965 22.5243C17.2396 22.3507 16.9116 22.139 16.543 21.9434C16.9889 21.1278 17.2096 19.8387 17.1059 19.5822C17.1059 19.5822 16.9231 20.2498 16.6996 20.6315C16.4926 20.9845 16.2377 21.3826 15.9903 21.6756C15.8056 21.5937 15.6167 21.5221 15.4244 21.4611C16.1627 20.8813 16.9174 18.9646 16.9174 18.9646L16.136 18.5957C16.136 18.5957 15.844 18.9429 15.7491 19.0072C15.7491 19.0072 15.7087 18.8347 15.685 18.7738C15.685 18.7738 15.5731 18.86 15.5117 18.8619C15.5117 18.8619 15.4934 18.7448 15.4795 18.6672C15.4026 18.7195 15.2743 18.7087 15.2743 18.7087C15.3867 18.653 15.5199 18.3211 15.5199 18.3211L14.7745 17.3102C14.7745 17.3102 14.5126 18.5929 14.2144 18.8567V13.3343L14.4504 13.5569L14.8078 13.2164V12.9574L14.4907 13.2592V12.4783C14.5385 12.4049 14.5704 12.3498 14.5941 12.3061C14.6454 12.3974 14.8124 12.677 15.0061 12.8489C15.0383 12.7159 15.2492 12.5896 15.2492 12.5896C15.2492 12.5896 15.3248 12.7985 15.4402 12.8503C15.4811 12.7771 15.7267 12.6146 15.7267 12.6146C15.7267 12.6146 15.5188 12.6469 15.4348 12.7259C15.3625 12.7095 15.3439 12.4185 15.3439 12.4185C15.3439 12.4185 15.0381 12.5704 14.9849 12.6789C14.9267 12.6631 14.8359 12.4285 14.8004 12.3328C14.8761 12.3243 14.9521 12.32 15.0282 12.32C15.1153 12.32 15.2269 12.3623 15.3439 12.4185C15.4721 12.48 15.6067 12.5576 15.7259 12.6133C15.8795 12.6842 16.112 12.6987 16.1796 12.7014C16.0983 12.7591 16.013 12.8105 15.9242 12.8553C15.9242 12.8553 16.2901 12.8519 16.5471 12.7215C16.6406 12.664 16.7302 12.6002 16.8153 12.5306C16.7761 12.647 16.7163 12.7551 16.6391 12.8497C17.0167 12.8172 17.2047 12.5974 17.2579 12.5234C17.2919 12.6176 17.3389 12.7063 17.3976 12.7868H17.534V22.2453L17.3965 22.5243Z" fill="#B07F55"/>
<path d="M14.6147 11.399L14.6216 11.5756V12.0953C14.4851 12.0474 14.3127 11.8171 14.2292 11.6966V11.6254C14.2301 11.5982 14.2366 11.5715 14.2481 11.547C14.2597 11.5225 14.2761 11.5007 14.2963 11.483L14.2145 11.4532C14.174 11.4968 14.1507 11.554 14.149 11.614V11.6555L13.9034 11.9245L13.6617 11.5514V11.4602C13.6617 11.3987 13.7081 11.3303 13.7471 11.2835L13.6653 11.2537C13.6243 11.3077 13.5812 11.3806 13.5812 11.4485V11.5225C13.5245 11.5826 13.3035 11.8146 13.3035 11.8146L13.1619 11.5058C13.331 11.2668 13.6055 10.9989 13.8644 10.807C13.8644 10.807 14.4254 11.3322 14.6145 11.399H14.6147Z" fill="#B07F55"/>
<path d="M13.1928 11.903V12.3317L12.9983 12.517V11.8802C13.0039 11.8042 13.0269 11.7305 13.0654 11.6652L13.1928 11.903Z" fill="#B07F55"/>
<path d="M13.8017 12.0683V12.3331L13.5769 12.5482V11.7194L13.8017 12.0683Z" fill="#B07F55"/>
<path d="M13.4972 12.5468L13.271 12.3331V12.0227L13.4961 11.782L13.4972 12.5468Z" fill="#B07F55"/>
<path d="M14.5237 12.2252C14.4716 12.3006 14.3349 12.4845 14.1873 12.5657V11.8377C14.2211 11.895 14.3763 12.1512 14.5237 12.2252Z" fill="#B07F55"/>
<path d="M14.1077 11.8747V12.5468L13.8826 12.3331V12.0953L14.1077 11.8747Z" fill="#B07F55"/>
<path d="M13.1928 12.591V13.2617L12.9983 13.0751V12.7774L13.1928 12.591Z" fill="#B07F55"/>
<path d="M13.4969 12.8061V13.0467L13.271 13.2603V12.5927L13.4969 12.8061Z" fill="#B07F55"/>
<path d="M13.8015 12.5924V13.26L13.5767 13.045V12.8072L13.8015 12.5924Z" fill="#B07F55"/>
<path d="M14.1074 12.8074V13.0453L13.8826 13.2603V12.5927L14.1074 12.8074Z" fill="#B07F55"/>
<path d="M14.4118 13.2617L14.187 13.0467V12.8241C14.2645 12.776 14.3425 12.6872 14.4118 12.5935V13.2617Z" fill="#B07F55"/>
<path d="M13.8419 13.558L14.0796 13.3329V18.8586C14.0796 18.8586 14.0959 19.1326 14.1068 19.3115L13.604 19.8298V13.3315L13.8419 13.558Z" fill="#B07F55"/>
<path d="M13.4688 19.6234C13.4688 19.8011 13.1507 20.2151 12.9968 20.3097V13.3346L13.2315 13.5572L13.4688 13.3321V19.6234Z" fill="#B07F55"/>
<path d="M15.441 19.0239L15.6142 18.9028C15.6142 18.9028 15.626 18.9613 15.6415 19.0419C15.5676 19.1454 15.1414 19.7374 14.9308 20.0276C14.8784 20.0993 14.8342 20.2824 14.8342 20.2824C14.8342 20.2824 14.7575 20.2454 14.7575 20.1783C14.7575 20.1113 14.766 20.0345 14.766 20.0345C14.7456 20.0558 14.7212 20.0727 14.6943 20.0842C14.6674 20.0957 14.6385 20.1016 14.6094 20.1016C14.6094 20.0209 14.7627 19.9333 14.7687 19.8181C14.6519 19.9065 14.5504 19.8612 14.414 19.9038C14.2667 19.9499 14.2258 20.0128 14.1807 20.0106C14.1535 20.0089 14.13 19.9622 14.1401 19.9335C14.1578 19.8837 14.3398 19.7463 14.4675 19.7213C14.4981 19.7154 14.7376 19.7747 14.7859 19.6987C14.9851 19.3855 15.3078 18.8775 15.3392 18.8286C15.3583 18.8249 15.3768 18.8182 15.3938 18.8085C15.3938 18.8085 15.3919 18.9685 15.4413 19.025L15.441 19.0239Z" fill="#D10429"/>
<path d="M14.3277 19.9992C14.3319 20.0044 14.3341 20.0111 14.3339 20.0179C14.3336 20.0248 14.3309 20.0312 14.3263 20.0362L14.248 20.106C14.2425 20.1091 14.2362 20.1102 14.23 20.109C14.2239 20.1079 14.2183 20.1047 14.2142 20.0998C14.2101 20.095 14.2077 20.0889 14.2075 20.0825C14.2073 20.0762 14.2093 20.0699 14.2131 20.0648L14.2914 19.995C14.2938 19.9928 14.2966 19.9911 14.2998 19.9901C14.3029 19.9891 14.3061 19.9888 14.3094 19.9892C14.3164 19.9902 14.3229 19.9938 14.3277 19.9992Z" fill="#D10429"/>
<path d="M14.4463 20.0832C14.4518 20.0892 14.4562 20.0962 14.459 20.1039C14.4619 20.1116 14.4632 20.1198 14.463 20.128C14.4627 20.1362 14.4609 20.1443 14.4576 20.1518C14.4542 20.1593 14.4495 20.1661 14.4435 20.1717L14.2526 20.3411C14.2395 20.3515 14.223 20.3563 14.2065 20.3544C14.19 20.3526 14.1749 20.3442 14.1644 20.3311C14.1532 20.3188 14.1472 20.3025 14.1477 20.2857C14.1482 20.2689 14.1552 20.253 14.1672 20.2415L14.3581 20.0746C14.3677 20.0666 14.3794 20.0617 14.3917 20.0604C14.4019 20.0597 14.4121 20.0613 14.4216 20.0653C14.4311 20.0693 14.4395 20.0754 14.4463 20.0832Z" fill="#D10429"/>
<path d="M14.555 20.2142C14.5606 20.2202 14.5649 20.2272 14.5678 20.2349C14.5706 20.2426 14.572 20.2508 14.5717 20.259C14.5715 20.2673 14.5696 20.2754 14.5663 20.2829C14.563 20.2903 14.5582 20.2971 14.5523 20.3027L14.3613 20.4721C14.355 20.4773 14.3477 20.4811 14.3399 20.4834C14.3321 20.4857 14.3239 20.4864 14.3159 20.4855C14.3078 20.4845 14.3 20.482 14.2929 20.478C14.2858 20.474 14.2796 20.4686 14.2745 20.4621C14.2633 20.4498 14.2573 20.4335 14.2578 20.4167C14.2584 20.4 14.2653 20.3841 14.2773 20.3725L14.4683 20.2056C14.4771 20.1973 14.4883 20.1923 14.5002 20.1911C14.5105 20.1907 14.5207 20.1927 14.5302 20.1969C14.5396 20.2011 14.548 20.2074 14.5547 20.2153L14.555 20.2142Z" fill="#D10429"/>
<path d="M14.6207 20.3183C14.631 20.3174 14.6412 20.319 14.6507 20.3229C14.6602 20.3269 14.6687 20.3331 14.6753 20.3411C14.6865 20.3534 14.6925 20.3697 14.692 20.3864C14.6915 20.4032 14.6845 20.4191 14.6726 20.4307L14.4816 20.5976C14.4686 20.6072 14.4525 20.6116 14.4366 20.6098C14.4206 20.608 14.4058 20.6002 14.3952 20.588C14.3845 20.5757 14.3787 20.5599 14.3789 20.5435C14.3791 20.5271 14.3853 20.5114 14.3962 20.4994L14.5872 20.33C14.5961 20.3221 14.6074 20.3176 14.6191 20.3172L14.6207 20.3183Z" fill="#D10429"/>
<path d="M17.3965 12.4199L18.6076 12.6981C18.6622 12.6811 18.9216 12.5991 19.1034 12.4959C19.4234 12.3142 19.5893 12.1342 19.9694 12.1156V11.8207C19.9694 11.6632 19.9134 11.5214 19.9134 11.3709C20.0736 11.3269 20.5186 10.7725 20.9289 10.5263C21.5327 10.9249 22.0001 11.5795 22.0001 11.8805C22.0001 11.8805 21.9821 18.3487 22.0001 20.602C22.0001 20.7319 22.077 20.9155 22.077 20.9155C21.8566 20.8204 21.4525 20.2568 21.3677 20.0423V20.1449C21.0348 19.9903 20.7911 19.5836 20.682 19.373C20.6801 19.4036 20.6749 19.4798 20.6749 19.4798C20.3775 19.2141 19.9988 17.6437 19.9988 17.6437L19.368 18.2761C19.368 18.2761 19.5961 18.749 19.6851 18.8325C19.6428 18.8373 19.6004 18.8396 19.5579 18.8394C19.5994 18.9003 19.9167 19.366 20.016 19.5416C20.109 19.706 20.1748 19.6328 20.3178 19.6328C20.4365 19.6328 20.7052 19.8253 20.7494 19.9032C20.7974 19.9829 20.8255 20.0733 20.8313 20.1666C20.8313 20.2568 20.7377 20.3803 20.7377 20.3803C20.7344 20.3585 20.725 20.3382 20.7104 20.3219C20.7104 20.3219 20.4648 20.6343 20.4283 20.6752C20.401 20.7069 20.2744 20.7278 20.2299 20.6866C20.1191 20.5837 20.0116 20.5119 19.9129 20.3633C19.8621 20.2868 19.8583 20.1992 19.7999 20.1169C19.6043 19.842 19.2155 19.3157 19.1266 19.1955C19.1205 19.2289 19.1156 19.257 19.1099 19.2909C19.0092 19.0834 18.5247 18.687 18.5247 18.687L18.0177 18.9248C18.0177 18.9248 18.9642 21.1431 19.8043 21.4842C19.8043 21.4842 19.4387 21.6424 18.9899 21.88C18.9244 21.9148 18.857 21.9521 18.7888 21.9896C18.7323 21.9204 18.6728 21.8433 18.6142 21.7632C18.3457 21.3971 18.0835 20.9728 18.0835 20.9728C18.0652 21.0841 18.2068 21.4235 18.4466 21.843C18.4936 21.9265 18.5429 22.0119 18.5972 22.0995C18.5367 22.1348 18.4761 22.1704 18.4158 22.2077C17.9711 22.4803 17.5536 22.7939 17.3989 23.0821L17.2898 22.8039L17.3989 22.5257V12.7891L17.3444 12.65L17.3965 12.4199Z" fill="black"/>
<path d="M17.3964 22.5243C17.5547 22.3513 17.8821 22.139 18.2499 21.9434C17.8043 21.1278 17.5833 19.8387 17.687 19.5822C17.687 19.5822 17.8701 20.2498 18.0935 20.6315C18.3003 20.9845 18.5552 21.3826 18.8029 21.6756C18.9876 21.5937 19.1765 21.5221 19.3688 21.4611C18.6305 20.8813 17.8755 18.9646 17.8755 18.9646L18.6561 18.5957C18.6561 18.5957 18.9483 18.9429 19.043 19.0072C19.043 19.0072 19.0837 18.8347 19.1074 18.7738C19.1074 18.7738 19.2193 18.86 19.2804 18.8619C19.2804 18.8619 19.2987 18.7448 19.3126 18.6672C19.3898 18.7195 19.518 18.7087 19.518 18.7087C19.4053 18.653 19.2725 18.3211 19.2725 18.3211L20.0179 17.3102C20.0179 17.3102 20.2798 18.5929 20.578 18.8567V13.3343L20.342 13.5569L19.9829 13.2175V12.9585L20.3 13.2603V12.4783C20.2522 12.4049 20.2206 12.3498 20.1966 12.3061C20.1453 12.3974 19.9783 12.677 19.7846 12.8489C19.7527 12.7159 19.5415 12.5896 19.5415 12.5896C19.5415 12.5896 19.4659 12.7985 19.3505 12.8503C19.3099 12.7771 19.067 12.6152 19.067 12.6152C19.067 12.6152 19.2747 12.6475 19.359 12.7265C19.4313 12.7101 19.4498 12.4191 19.4498 12.4191C19.4498 12.4191 19.7554 12.571 19.8086 12.6795C19.867 12.6636 19.9578 12.4291 19.993 12.3334C19.9175 12.3249 19.8415 12.3206 19.7655 12.3206C19.6782 12.3206 19.5666 12.3629 19.4498 12.4191C19.3213 12.4806 19.1871 12.5582 19.0678 12.6138C18.9142 12.6848 18.6818 12.6992 18.6138 12.702C18.6952 12.7597 18.7807 12.8111 18.8695 12.8558C18.8695 12.8558 18.5036 12.8525 18.2466 12.722C18.1532 12.6645 18.0636 12.6008 17.9784 12.5312C18.0175 12.6481 18.0773 12.7568 18.1549 12.8517C17.7773 12.8191 17.5893 12.5993 17.5361 12.5254C17.5022 12.6196 17.4552 12.7083 17.3964 12.7888H17.26V22.2472L17.3964 22.5243Z" fill="#B07F55"/>
<path d="M20.1782 11.399L20.1711 11.5756V12.0953C20.3076 12.0474 20.4803 11.8171 20.5638 11.6966V11.6254C20.5629 11.5982 20.5564 11.5715 20.5449 11.547C20.5333 11.5225 20.5169 11.5007 20.4966 11.483L20.5785 11.4532C20.619 11.4967 20.6424 11.554 20.6442 11.614V11.6554L20.8898 11.9245L21.1315 11.5514V11.4602C21.1315 11.3987 21.0852 11.3302 21.0464 11.2835L21.1283 11.2537C21.1692 11.3077 21.212 11.3806 21.212 11.4485V11.5225C21.2688 11.5826 21.49 11.8146 21.49 11.8146C21.49 11.8146 21.6008 11.5714 21.6311 11.5055C21.4617 11.2665 21.1872 10.9986 20.9285 10.8067C20.9285 10.8067 20.3673 11.3319 20.1785 11.3987L20.1782 11.399Z" fill="#B07F55"/>
<path d="M21.6003 11.903V12.3317L21.7957 12.517V11.8802C21.7902 11.8042 21.7673 11.7305 21.7288 11.6652L21.6003 11.903Z" fill="#B07F55"/>
<path d="M20.9924 12.0683V12.3331L21.2173 12.5482V11.7194L20.9924 12.0683Z" fill="#B07F55"/>
<path d="M21.2959 12.5468L21.5207 12.3331V12.0227L21.2959 11.782V12.5468Z" fill="#B07F55"/>
<path d="M20.2693 12.2252C20.3217 12.3006 20.4584 12.4845 20.606 12.5657V11.8377C20.5721 11.895 20.4166 12.1512 20.2693 12.2252Z" fill="#B07F55"/>
<path d="M20.6855 11.8747V12.5468L20.9104 12.3331V12.0953L20.6855 11.8747Z" fill="#B07F55"/>
<path d="M21.6003 12.591V13.2617L21.796 13.0751V12.7774L21.6003 12.591Z" fill="#B07F55"/>
<path d="M21.2959 12.8061V13.0467L21.521 13.2603V12.5927L21.2959 12.8061Z" fill="#B07F55"/>
<path d="M20.9924 12.5924V13.26L21.2173 13.045V12.8072L20.9924 12.5924Z" fill="#B07F55"/>
<path d="M20.6855 12.8074V13.0453L20.9106 13.2603V12.5927L20.6855 12.8074Z" fill="#B07F55"/>
<path d="M20.3809 13.2617L20.606 13.0467V12.8241C20.5285 12.776 20.4504 12.6872 20.3809 12.5935V13.2617Z" fill="#B07F55"/>
<path d="M20.9509 13.558L20.7136 13.3329V18.8586C20.7136 18.8586 20.6969 19.1326 20.6863 19.3115L21.1891 19.8298V13.3315L20.9509 13.558Z" fill="#B07F55"/>
<path d="M21.324 19.6234C21.324 19.8011 21.6421 20.2151 21.796 20.3097V13.3346L21.5613 13.5572L21.324 13.3321V19.6234Z" fill="#B07F55"/>
<path d="M19.3519 19.0239L19.1787 18.9017C19.1787 18.9017 19.1672 18.9602 19.1514 19.0408C19.2256 19.1443 19.6515 19.7363 19.8624 20.0265C19.9148 20.0982 19.9587 20.2813 19.9587 20.2813C19.9587 20.2813 20.0354 20.2443 20.0354 20.1772C20.0354 20.1102 20.0272 20.0334 20.0272 20.0334C20.0475 20.0547 20.0719 20.0715 20.0987 20.0831C20.1256 20.0946 20.1544 20.1005 20.1835 20.1005C20.1835 20.0198 20.0305 19.9322 20.0245 19.817C20.1412 19.9054 20.2427 19.8601 20.3791 19.9027C20.5262 19.9488 20.5671 20.0117 20.6124 20.0095C20.6397 20.0078 20.6629 19.9611 20.6528 19.9324C20.6353 19.8826 20.4534 19.7452 20.3254 19.7202C20.2951 19.7143 20.0553 19.7736 20.007 19.6976C19.8081 19.3844 19.485 18.8764 19.4539 18.8275C19.4348 18.8238 19.4164 18.8171 19.3994 18.8074C19.3994 18.8074 19.4013 18.9674 19.3519 19.0239V19.0239Z" fill="#D10429"/>
<path d="M20.4652 19.9992C20.463 20.0017 20.4612 20.0047 20.46 20.0079C20.4589 20.0111 20.4584 20.0146 20.4585 20.018C20.4587 20.0215 20.4595 20.0248 20.4609 20.0279C20.4624 20.0311 20.4644 20.0339 20.4669 20.0362L20.5449 20.106C20.5504 20.11 20.5571 20.1118 20.5638 20.111C20.5705 20.1102 20.5767 20.107 20.5812 20.1018C20.5836 20.0994 20.5855 20.0965 20.5868 20.0934C20.5882 20.0902 20.5888 20.0868 20.5888 20.0833C20.5888 20.0799 20.5882 20.0765 20.5868 20.0733C20.5855 20.0701 20.5836 20.0672 20.5812 20.0648L20.5012 19.995C20.4988 19.9927 20.4959 19.991 20.4927 19.99C20.4896 19.989 20.4863 19.9887 20.483 19.9892C20.4759 19.9902 20.4694 19.9938 20.4647 19.9992H20.4652Z" fill="#D10429"/>
<path d="M20.3465 20.0832C20.3409 20.0892 20.3366 20.0962 20.3338 20.1039C20.3309 20.1116 20.3296 20.1198 20.3299 20.1281C20.3301 20.1363 20.332 20.1444 20.3354 20.1519C20.3387 20.1593 20.3435 20.1661 20.3495 20.1717L20.5404 20.3411C20.5534 20.3516 20.5699 20.3564 20.5864 20.3545C20.6028 20.3526 20.6179 20.3442 20.6283 20.3311C20.6396 20.3188 20.6456 20.3025 20.6451 20.2857C20.6446 20.2689 20.6376 20.253 20.6256 20.2415L20.4346 20.0746C20.425 20.0665 20.4133 20.0616 20.401 20.0604C20.3908 20.0597 20.3806 20.0614 20.3711 20.0653C20.3617 20.0693 20.3532 20.0754 20.3465 20.0832Z" fill="#D10429"/>
<path d="M20.2376 20.2142C20.232 20.2202 20.2277 20.2273 20.2249 20.235C20.222 20.2427 20.2207 20.2509 20.221 20.2591C20.2213 20.2673 20.2231 20.2754 20.2265 20.2829C20.2299 20.2904 20.2346 20.2971 20.2406 20.3027L20.4316 20.4721C20.4379 20.4773 20.4451 20.4811 20.4529 20.4834C20.4607 20.4857 20.4688 20.4864 20.4768 20.4854C20.4849 20.4845 20.4927 20.482 20.4997 20.478C20.5068 20.474 20.513 20.4686 20.518 20.4621C20.5293 20.4498 20.5354 20.4335 20.5349 20.4167C20.5343 20.3999 20.5273 20.384 20.5153 20.3725L20.3243 20.2056C20.3154 20.1974 20.3041 20.1923 20.2921 20.1911C20.2818 20.1907 20.2716 20.1927 20.2621 20.1969C20.2527 20.2011 20.2443 20.2074 20.2376 20.2153V20.2142Z" fill="#D10429"/>
<path d="M20.1722 20.3183C20.162 20.3174 20.1517 20.319 20.1423 20.323C20.1328 20.3269 20.1243 20.3331 20.1177 20.3411C20.1065 20.3534 20.1005 20.3697 20.1011 20.3865C20.1017 20.4033 20.1087 20.4191 20.1207 20.4307L20.3117 20.5976C20.3247 20.6069 20.3406 20.611 20.3564 20.6091C20.3722 20.6073 20.3868 20.5995 20.3973 20.5873C20.4079 20.5752 20.4137 20.5595 20.4136 20.5432C20.4135 20.527 20.4075 20.5114 20.3968 20.4994L20.2058 20.33C20.1968 20.3221 20.1854 20.3176 20.1736 20.3172L20.1722 20.3183Z" fill="#D10429"/>
<path d="M17.1161 9.71147C17.4288 9.71147 17.6487 9.85669 17.9445 9.98966C18.022 10.0247 18.0932 10.0531 18.1567 10.0751C18.1222 10.102 18.0949 10.1373 18.0771 10.1777C18.0771 10.1777 18.2097 10.2028 18.27 10.3168C18.27 10.3168 18.1439 10.3316 18.1232 10.4067C18.1939 10.412 18.264 10.5029 18.2642 10.5903L18.0855 10.5332C18.1131 10.674 18.1276 10.817 18.1289 10.9605C18.1289 11.0743 17.9682 11.2081 17.9682 11.4006C17.9682 12.0054 18.1177 12.2377 18.2239 12.4247C18.2653 12.4978 18.2992 12.5818 18.3693 12.6453C18.0632 12.4783 17.8356 12.2714 17.8356 12.0786V11.3478H17.7559V12.0783C17.7559 12.2174 17.7895 12.2833 17.7895 12.2833C17.8375 12.4383 17.9347 12.677 17.995 12.7732C17.7131 12.618 17.5701 12.4238 17.5701 12.3518V11.3478H17.4905V12.366L17.506 12.4358C17.4719 12.4881 17.4274 12.5498 17.3969 12.571C17.3666 12.5498 17.3235 12.4875 17.2894 12.4358L17.3047 12.366V11.3478H17.2253V12.3518C17.2253 12.4238 17.082 12.618 16.8005 12.7732C16.8608 12.677 16.9579 12.4394 17.0059 12.2833C17.0059 12.2833 17.0395 12.2182 17.0395 12.0783V11.3478H16.9598V12.0783C16.9598 12.2711 16.7331 12.4792 16.4275 12.645C16.4968 12.5816 16.5301 12.497 16.5713 12.4244C16.6875 12.2199 16.8313 11.9604 16.8313 11.2209C16.8313 10.9427 16.7909 10.755 16.7222 10.6228C16.7009 10.5791 16.6722 10.4634 16.8354 10.4634C16.92 10.4634 17.1134 10.6156 17.1134 10.6156C17.1095 10.578 17.0981 10.5417 17.0798 10.5089C17.0616 10.4761 17.0369 10.4474 17.0073 10.4247C16.995 10.415 16.9849 10.4028 16.9774 10.3888C16.9699 10.3749 16.9653 10.3596 16.9639 10.3438C16.975 10.3009 17.002 10.2642 17.0392 10.2411C17.0621 10.2306 16.7069 10.1674 16.7069 10.0033C16.7069 9.96908 16.7279 9.94765 16.8018 9.94765C16.8984 9.94765 17.0558 10.0659 17.1958 10.0659C17.2992 10.0659 17.3399 10.0403 17.4457 10.0403C17.5751 10.0403 17.8449 10.2907 17.9368 10.2809C17.8337 10.215 17.6667 9.9649 17.4144 9.9649C17.3268 9.9649 17.2476 9.98465 17.1658 9.98465C17.061 9.98465 16.9579 9.88645 16.8447 9.88645C16.7685 9.88645 16.684 9.89063 16.6714 9.87087C16.6493 9.83582 16.6692 9.81524 16.6894 9.78742C16.7279 9.73317 16.8359 9.71731 16.9423 9.71342C16.9743 9.71342 17.0062 9.71175 17.0359 9.71342C17.0657 9.71509 17.0932 9.71509 17.1178 9.71509L17.1161 9.71147Z" fill="#B07F55"/>
<path d="M16.1011 10.1023C16.1255 10.0621 16.1599 10.0292 16.2007 10.0069C16.2416 9.9845 16.2875 9.97348 16.3338 9.97492C16.4037 9.97492 16.6339 9.96991 16.6339 9.96991C16.6645 10.0511 16.8045 10.1869 16.8045 10.3282C16.8045 10.3282 16.6623 10.0673 16.2661 10.0673C16.2097 10.0666 16.1538 10.0785 16.1024 10.1023H16.1011Z" fill="#CC092F"/>
<path d="M16.7453 10.378C16.7453 10.378 16.661 10.4687 16.6428 10.5171C16.559 10.4848 16.4136 10.3318 16.4136 10.3318C16.4136 10.3318 16.5369 10.4053 16.7453 10.378Z" fill="#D10429"/>
<path d="M16.6116 10.1388C16.6116 10.1388 16.5142 10.107 16.5142 10.0737C16.5142 10.0311 16.5614 10.0311 16.5897 10.0642C16.6032 10.0867 16.6107 10.1124 16.6116 10.1388V10.1388Z" fill="black"/>
<path d="M17.0308 10.2528C17.1078 10.2528 17.1702 10.2025 17.1702 10.1404C17.1702 10.0784 17.1078 10.0281 17.0308 10.0281C16.9538 10.0281 16.8914 10.0784 16.8914 10.1404C16.8914 10.2025 16.9538 10.2528 17.0308 10.2528Z" fill="black"/>
<path d="M17.0307 10.2395C17.0844 10.2395 17.1279 10.1951 17.1279 10.1404C17.1279 10.0857 17.0844 10.0414 17.0307 10.0414C16.9771 10.0414 16.9336 10.0857 16.9336 10.1404C16.9336 10.1951 16.9771 10.2395 17.0307 10.2395Z" fill="#F5D402"/>
<path d="M17.0307 10.1824C17.0535 10.1824 17.0719 10.1636 17.0719 10.1404C17.0719 10.1172 17.0535 10.0984 17.0307 10.0984C17.0079 10.0984 16.9895 10.1172 16.9895 10.1404C16.9895 10.1636 17.0079 10.1824 17.0307 10.1824Z" fill="black"/>
<path d="M14.8094 20.4304L15.2514 20.6763L15.1441 21.1779L14.7021 20.932L14.8094 20.4304Z" fill="black"/>
<path d="M12.7497 15.6116L12.5903 15.6856L14.3894 19.7032H14.5804L12.7497 15.6116ZM14.8713 20.3497L14.7414 20.4874L14.8233 20.6696L14.9812 20.5956L14.8713 20.3497Z" fill="black"/>
<path d="M13.3088 18.7793C13.3088 18.7793 13.4603 19.0984 13.5757 19.141C13.5159 19.1246 13.3225 19.1966 13.3225 19.1966C13.3225 19.1966 13.6635 19.5074 13.9527 19.5277C14.1983 19.5449 14.3173 19.42 14.3173 19.42L14.2681 19.1552C14.1618 19.0338 14.0278 18.941 13.878 18.885C13.6352 18.7988 13.3088 18.7779 13.3088 18.7779V18.7793Z" fill="black"/>
<path d="M14.4512 18.2076C14.4512 18.2076 14.242 18.3901 14.1847 18.6018C14.1274 18.8135 14.2221 19.0539 14.2221 19.0539L14.3978 19.3877C14.3978 19.3877 14.6414 19.2553 14.7451 19.0578C14.8488 18.8603 14.8108 18.5932 14.8108 18.5932C14.8108 18.5932 14.6177 18.6664 14.5926 18.6989C14.6335 18.4797 14.4507 18.2071 14.4507 18.2071L14.4512 18.2076Z" fill="black"/>
<path d="M13.7788 18.1228C13.7788 18.1228 13.5408 18.2049 13.3098 18.1907C13.0896 18.177 12.9065 17.9887 12.9065 17.9887C12.9065 17.9887 13.089 17.8627 13.1793 17.8794C13.0803 17.8427 12.9365 17.5895 12.9365 17.5895C12.9365 17.5895 13.1409 17.5266 13.3218 17.5962C13.5026 17.6657 13.6606 17.868 13.6606 17.868L13.779 18.1228H13.7788Z" fill="black"/>
<path d="M13.8604 16.9372C13.8604 16.9372 13.9794 17.1875 13.9513 17.2757C13.9881 17.2176 14.1278 17.1272 14.1278 17.1272C14.1278 17.1272 14.2124 17.5339 14.1316 17.7851C14.0509 18.0363 13.8042 18.132 13.8042 18.132L13.5336 17.5942C13.5336 17.5942 13.4932 17.3951 13.5778 17.2373C13.6623 17.0796 13.8604 16.9374 13.8604 16.9374V16.9372Z" fill="black"/>
<path d="M12.3123 16.272C12.3123 16.272 12.5696 16.2442 12.8034 16.3438C13.0001 16.4272 13.0604 16.5786 13.0604 16.5786L13.1573 16.8434C13.1573 16.8434 12.8773 16.9502 12.6561 16.8684C12.4348 16.7867 12.2725 16.5157 12.2725 16.5157C12.2725 16.5157 12.4272 16.4559 12.4858 16.4784C12.4001 16.4398 12.3109 16.272 12.3109 16.272H12.3123Z" fill="black"/>
<path d="M13.1212 15.7804C13.1212 15.7804 13.2342 15.9281 13.2375 16.0981C13.2675 16.008 13.4085 15.9078 13.4085 15.9078C13.4085 15.9078 13.5534 16.2656 13.5215 16.5199C13.4896 16.7741 13.2814 16.9238 13.2814 16.9238L13.0211 16.4205C13.0211 16.4205 12.9365 16.2144 12.9614 16.0542C12.9862 15.8939 13.1212 15.7807 13.1212 15.7807V15.7804Z" fill="black"/>
<path d="M12.2303 14.8179C12.2303 14.8179 12.1836 15.0919 12.263 15.25C12.3339 15.391 12.379 15.4219 12.379 15.4219C12.2439 15.3309 12.0396 15.3231 12.0396 15.3231C12.0396 15.3231 12.1121 15.6213 12.2851 15.7574C12.4581 15.8934 12.7271 15.8614 12.7271 15.8614C12.7271 15.8614 12.9034 15.6222 12.8908 15.3646C12.8783 15.107 12.6777 14.8304 12.6777 14.8304C12.6777 14.8304 12.5986 14.9974 12.5915 15.1231C12.5402 14.994 12.2292 14.8171 12.2292 14.8171L12.2303 14.8179Z" fill="black"/>
<path d="M14.3313 19.41L14.3384 19.5085C14.4988 19.5098 14.5228 19.4937 14.5638 19.5452C14.5832 19.5672 14.6089 19.5823 14.6373 19.5884C14.6658 19.5944 14.6953 19.5911 14.7217 19.5788C14.7533 19.564 14.7778 19.537 14.79 19.5039C14.8021 19.4707 14.8009 19.4339 14.7867 19.4016C14.7567 19.3349 14.6958 19.3204 14.6372 19.3321C14.6011 19.3393 14.5777 19.3688 14.5471 19.3847C14.489 19.4155 14.3313 19.41 14.3313 19.41Z" fill="black"/>
<path d="M14.3174 19.3349L14.3954 19.393C14.3116 19.5321 14.2863 19.5446 14.3067 19.6075C14.3149 19.6358 14.314 19.666 14.3042 19.6938C14.2944 19.7215 14.2761 19.7454 14.2522 19.7619C14.2231 19.7813 14.1877 19.7883 14.1536 19.7812C14.1195 19.7742 14.0896 19.7538 14.0702 19.7243C14.0306 19.6629 14.0508 19.6028 14.0917 19.5574C14.1168 19.5296 14.1537 19.5252 14.1831 19.5074C14.2393 19.4731 14.3196 19.334 14.3196 19.334L14.3174 19.3349Z" fill="black"/>
<path d="M13.7744 18.1665L13.7815 18.265C13.9419 18.265 13.9657 18.2502 14.0069 18.3017C14.0263 18.3237 14.052 18.3388 14.0805 18.3449C14.1089 18.3509 14.1384 18.3476 14.1648 18.3353C14.1964 18.3205 14.2209 18.2935 14.2331 18.2604C14.2452 18.2272 14.2441 18.1904 14.2298 18.1581C14.1998 18.0914 14.1389 18.0769 14.0803 18.0886C14.0443 18.0958 14.0205 18.125 13.9902 18.1412C13.9321 18.1718 13.7744 18.1665 13.7744 18.1665V18.1665Z" fill="black"/>
<path d="M13.807 18.2012L13.8752 18.2713C13.7713 18.3957 13.7437 18.4035 13.7549 18.4689C13.7585 18.4982 13.7529 18.528 13.7387 18.5539C13.7246 18.5798 13.7027 18.6004 13.6763 18.6127C13.6446 18.6272 13.6086 18.6284 13.5761 18.616C13.5435 18.6036 13.5171 18.5786 13.5025 18.5465C13.4725 18.4797 13.5025 18.4235 13.5489 18.386C13.5778 18.3631 13.6149 18.364 13.6469 18.3509C13.7077 18.3264 13.807 18.2012 13.807 18.2012V18.2012Z" fill="black"/>
<path d="M13.2346 17.0022L13.2417 17.1007C13.4021 17.1021 13.4259 17.086 13.4671 17.1374C13.4865 17.1595 13.5123 17.1746 13.5407 17.1806C13.5691 17.1867 13.5986 17.1834 13.6251 17.1711C13.6566 17.1563 13.6811 17.1293 13.6933 17.0961C13.7055 17.0629 13.7043 17.0262 13.69 16.9939C13.66 16.9271 13.5991 16.9127 13.5405 16.9243C13.5045 16.9316 13.481 16.9608 13.4504 16.9769C13.3923 17.0075 13.2346 17.0022 13.2346 17.0022Z" fill="black"/>
<path d="M13.2793 16.9822L13.3475 17.0523C13.2436 17.1767 13.216 17.1845 13.2272 17.2498C13.2308 17.2792 13.2252 17.3089 13.2111 17.3348C13.1971 17.3607 13.1753 17.3813 13.1489 17.3937C13.1172 17.4081 13.0811 17.4093 13.0485 17.3969C13.016 17.3845 12.9895 17.3596 12.9748 17.3274C12.9451 17.2607 12.9748 17.2045 13.0212 17.1669C13.0501 17.1438 13.0872 17.1449 13.1192 17.1319C13.18 17.1071 13.2793 16.9822 13.2793 16.9822V16.9822Z" fill="black"/>
<path d="M12.6599 15.7732L12.667 15.8717C12.8274 15.8731 12.8512 15.8569 12.8924 15.9084C12.9118 15.9304 12.9375 15.9456 12.966 15.9516C12.9944 15.9577 13.0239 15.9543 13.0503 15.9421C13.0819 15.9272 13.1064 15.9003 13.1186 15.8671C13.1307 15.8339 13.1296 15.7972 13.1153 15.7649C13.0853 15.6981 13.0244 15.6836 12.9658 15.6953C12.9298 15.7025 12.9063 15.732 12.8757 15.7479C12.8176 15.7785 12.6599 15.7732 12.6599 15.7732Z" fill="black"/>
<path d="M12.7042 15.7526L12.7724 15.8227C12.6685 15.9471 12.6407 15.9549 12.6521 16.0202C12.6558 16.0496 12.6501 16.0794 12.6361 16.1052C12.622 16.1311 12.6002 16.1517 12.5738 16.1641C12.5421 16.1787 12.506 16.18 12.4734 16.1676C12.4408 16.1552 12.4143 16.1301 12.3997 16.0979C12.3697 16.0311 12.3997 15.9749 12.4461 15.9373C12.4751 15.9145 12.5122 15.9154 12.5441 15.9023C12.6049 15.8778 12.7042 15.7526 12.7042 15.7526V15.7526Z" fill="black"/>
<path d="M14.8727 20.5725L15.1469 20.725L15.0804 21.0363L14.8062 20.8838L14.8727 20.5725Z" fill="#F5D402"/>
<path d="M13.6725 17.8749C13.6149 17.8991 13.5298 17.644 13.4673 17.5044C13.4048 17.3647 13.2728 17.1399 13.3096 17.1227C13.3464 17.1054 13.4037 17.2198 13.4695 17.3667C13.5352 17.5136 13.7262 17.8521 13.6725 17.8749V17.8749Z" fill="#F5D402"/>
<path d="M13.0826 16.5316C13.0253 16.556 12.9622 16.3889 12.8998 16.2492C12.8373 16.1096 12.7729 16.0044 12.81 15.9871C12.8471 15.9699 12.9107 16.094 12.9633 16.2114C13.016 16.3288 13.1363 16.5088 13.0826 16.5316Z" fill="#F5D402"/>
<path d="M14.4476 19.5775C14.4026 19.5897 14.2056 19.1696 14.0466 18.8141C13.8875 18.4586 13.7688 18.1709 13.8059 18.1537C13.843 18.1364 13.9753 18.4705 14.1333 18.8261C14.2913 19.1816 14.4801 19.5683 14.4463 19.5772L14.4476 19.5775Z" fill="#F5D402"/>
<path d="M12.3095 14.9845C12.3095 14.9845 12.3027 15.1848 12.3676 15.2986C12.4326 15.4124 12.5777 15.4575 12.5777 15.4575C12.5777 15.4575 12.5848 15.2572 12.5196 15.1437C12.4544 15.0302 12.3095 14.9845 12.3095 14.9845Z" fill="#097754"/>
<path d="M12.1736 15.4377C12.1736 15.4377 12.3444 15.448 12.4429 15.5251C12.5414 15.6021 12.5793 15.7624 12.5793 15.7624C12.5034 15.7664 12.4285 15.7433 12.3676 15.697C12.2694 15.6191 12.1736 15.4377 12.1736 15.4377Z" fill="#097754"/>
<path d="M12.7093 15.0332C12.6744 15.1207 12.6573 15.2145 12.6591 15.3089C12.6656 15.4519 12.7475 15.6133 12.7475 15.6133C12.7475 15.6133 12.8214 15.4413 12.8148 15.2983C12.8083 15.1554 12.7292 15.0738 12.7093 15.0332V15.0332Z" fill="#097754"/>
<path d="M12.4219 16.3229C12.4788 16.3994 12.5514 16.4624 12.6347 16.5073C12.7637 16.5722 12.9558 16.5747 12.9558 16.5747C12.8941 16.4961 12.8177 16.4309 12.731 16.3827C12.6019 16.3176 12.4219 16.3229 12.4219 16.3229V16.3229Z" fill="#097754"/>
<path d="M12.4634 16.6C12.4634 16.6 12.525 16.7229 12.6375 16.7758C12.7499 16.8287 12.9807 16.8242 12.9807 16.8242C12.9256 16.7551 12.8571 16.6983 12.7796 16.6573C12.6669 16.6044 12.4634 16.6017 12.4634 16.6017V16.6Z" fill="#097754"/>
<path d="M13.112 15.944C13.0708 16.0174 13.0496 16.1007 13.0506 16.1852C13.0571 16.3115 13.1387 16.4498 13.1387 16.4498C13.1387 16.4498 13.1957 16.2912 13.1892 16.1649C13.1834 16.0855 13.1567 16.0092 13.112 15.944V15.944Z" fill="#097754"/>
<path d="M13.3626 16.1062C13.3626 16.1062 13.2461 16.2656 13.2295 16.4295C13.2129 16.5933 13.2958 16.7616 13.2958 16.7616C13.2958 16.7616 13.4363 16.6175 13.4532 16.4539C13.4701 16.2904 13.3626 16.1062 13.3626 16.1062V16.1062Z" fill="#097754"/>
<path d="M13.0415 17.6196C13.0543 17.6639 13.0756 17.7053 13.1043 17.7411C13.144 17.7883 13.1881 17.8315 13.236 17.8699C13.295 17.8537 13.357 17.8522 13.4167 17.8655C13.5165 17.8877 13.6497 17.9784 13.6497 17.9784C13.6497 17.9784 13.5064 17.7606 13.3577 17.676C13.2603 17.6251 13.15 17.6057 13.0415 17.6204V17.6196Z" fill="#097754"/>
<path d="M13.0269 17.994C13.0269 17.994 13.2121 17.9133 13.3649 17.9342C13.5177 17.955 13.6552 18.078 13.6552 18.078C13.6552 18.078 13.4489 18.1506 13.2961 18.13C13.1956 18.1116 13.1022 18.0644 13.0269 17.994V17.994Z" fill="#097754"/>
<path d="M13.8099 17.1155C13.8099 17.1155 13.6462 17.2924 13.6323 17.4462C13.6184 17.6001 13.7652 17.7431 13.7652 17.7431C13.7613 17.6879 13.7674 17.6324 13.7832 17.5795C13.8041 17.5317 13.8306 17.4867 13.862 17.4454C13.875 17.3992 13.8798 17.3509 13.8762 17.303C13.8636 17.2374 13.8412 17.1742 13.8099 17.1155Z" fill="#097754"/>
<path d="M14.0452 17.3205C14.0452 17.3205 13.8908 17.4799 13.8499 17.6504C13.809 17.821 13.8818 18.0032 13.8818 18.0032C13.8818 18.0032 14.0223 17.8902 14.0632 17.7194C14.1042 17.5486 14.0452 17.3205 14.0452 17.3205V17.3205Z" fill="#097754"/>
<path d="M14.4323 18.3493C14.4725 18.4363 14.5021 18.5282 14.5201 18.6227C14.5379 18.7473 14.5201 18.7896 14.5201 18.7896C14.5201 18.7896 14.4478 18.8622 14.4154 18.9048C14.3736 18.9604 14.3676 19.06 14.3676 19.06C14.3676 19.06 14.2222 18.8397 14.2448 18.6786C14.2675 18.5176 14.4312 18.3484 14.4312 18.3484L14.4323 18.3493Z" fill="#097754"/>
<path d="M14.7382 18.6939C14.7382 18.6939 14.5522 18.8191 14.4785 18.9476C14.435 19.0267 14.4227 19.1197 14.4441 19.2077C14.4865 19.2017 14.5271 19.1861 14.5628 19.162C14.5986 19.1379 14.6286 19.106 14.6507 19.0686C14.7243 18.9401 14.7396 18.695 14.7396 18.695L14.7382 18.6939Z" fill="#097754"/>
<path d="M13.5166 19.223C13.5166 19.223 13.7848 19.2155 13.9485 19.2567C14.1122 19.2979 14.172 19.3872 14.172 19.3872C14.172 19.3872 13.9878 19.4754 13.8238 19.4342C13.6598 19.393 13.5166 19.223 13.5166 19.223Z" fill="#097754"/>
<path d="M13.4706 18.8987C13.4706 18.8987 13.5915 19.0898 13.7478 19.1593C13.9633 19.2548 14.2116 19.2086 14.2116 19.2086C14.2116 19.2086 14.0752 19.0392 13.8894 18.9643C13.7036 18.8895 13.4692 18.8987 13.4692 18.8987H13.4706Z" fill="#097754"/>
<path d="M22.6497 15.1445L22.6847 15.2202C22.6502 15.2335 22.6212 15.2585 22.6028 15.2911C22.5772 15.3426 22.6194 15.4152 22.6194 15.4152C22.6194 15.4152 22.3248 15.389 22.2787 15.4193C22.2372 15.4472 22.2964 15.6553 22.2688 15.8311C22.2306 16.0762 22.136 16.0556 22.1324 16.1031C22.1289 16.1507 22.1687 16.2211 22.1687 16.2211C22.1687 16.2211 22.1141 16.2389 22.1016 16.2625C22.0828 16.3004 22.1147 16.3702 22.0918 16.4164L21.6473 17.3021C21.6299 17.3372 21.5829 17.3505 21.5595 17.3976C21.547 17.4318 21.5456 17.4692 21.5554 17.5044C21.5554 17.5044 21.4722 17.5094 21.4435 17.567C21.4254 17.6126 21.421 17.6626 21.431 17.7108C21.4144 17.7138 21.3988 17.7207 21.3852 17.7308C21.3716 17.7409 21.3605 17.7541 21.3526 17.7692C21.3254 17.8249 21.3717 17.8527 21.3597 17.8774C21.1914 18.214 20.9933 18.611 20.8722 18.853C20.8277 18.9421 20.6719 18.9599 20.5816 19.1407C20.5562 19.1894 20.5461 19.245 20.5528 19.2998C20.5596 19.3546 20.5828 19.4059 20.6193 19.4467C20.6193 19.4467 20.4891 19.4587 20.4556 19.5279C20.422 19.5972 20.4482 19.7054 20.5423 19.7541C20.6364 19.8028 20.739 19.7636 20.7742 19.6929C20.8094 19.6222 20.7393 19.5093 20.7393 19.5093C20.793 19.5148 20.8471 19.5034 20.8943 19.4767C20.9414 19.4499 20.9794 19.4091 21.0031 19.3596C21.0937 19.1788 21.0173 19.0414 21.0618 18.9524C21.1829 18.7103 21.381 18.3125 21.5494 17.9767C21.5614 17.9525 21.6113 17.9737 21.6389 17.9186C21.6463 17.9033 21.6501 17.8864 21.6501 17.8694C21.6501 17.8523 21.6463 17.8354 21.6389 17.8201C21.6832 17.7999 21.7206 17.7666 21.7464 17.7247C21.775 17.6671 21.7311 17.5953 21.7311 17.5953C21.7645 17.5828 21.7931 17.5598 21.8129 17.5297C21.8364 17.4827 21.8189 17.4365 21.8364 17.4014C21.9616 17.1511 22.1512 16.7722 22.2792 16.5157C22.3024 16.4698 22.3763 16.4539 22.3952 16.4161C22.4069 16.3925 22.3883 16.3363 22.3883 16.3363C22.3883 16.3363 22.4702 16.3279 22.5043 16.2979C22.5384 16.2678 22.4677 16.1999 22.6407 16.0244C22.764 15.8984 22.9632 15.8244 22.9605 15.774C22.9578 15.7184 22.7638 15.4906 22.7638 15.4906C22.7638 15.4906 22.8456 15.4836 22.8713 15.4321C22.8864 15.3971 22.8894 15.3579 22.8797 15.3209L22.9616 15.3067V14.9139L22.6497 15.1445ZM19.9721 20.5987C19.9655 20.6122 19.9621 20.627 19.9621 20.6421C19.9621 20.6571 19.9655 20.672 19.9721 20.6855C19.9721 20.6855 19.8744 20.6543 19.8408 20.6713C19.8073 20.6883 19.8408 21.1567 19.8408 21.1567C19.8408 21.1567 20.231 20.9064 20.225 20.8705C20.219 20.8346 20.1369 20.7695 20.1369 20.7695C20.1513 20.7673 20.1651 20.7616 20.1769 20.7529C20.1888 20.7443 20.1986 20.7329 20.2054 20.7197C20.2182 20.6938 20.2201 20.6204 20.1314 20.5745C20.105 20.5595 20.0749 20.5525 20.0447 20.5544C20.03 20.5554 20.0158 20.56 20.0032 20.5677C19.9905 20.5754 19.9799 20.586 19.9721 20.5987V20.5987Z" fill="black"/>
<path d="M22.7207 15.1604L22.9051 15.2558L22.9024 15.0293L22.7207 15.1604Z" fill="#F5D402"/>
<path d="M22.6494 15.297C22.6373 15.3153 22.631 15.337 22.6314 15.3591C22.6317 15.3812 22.6386 15.4026 22.6512 15.4206C22.6637 15.4386 22.6814 15.4523 22.7018 15.4598C22.7222 15.4673 22.7443 15.4683 22.7653 15.4627C22.7862 15.457 22.805 15.445 22.8191 15.4282C22.8332 15.4114 22.8419 15.3907 22.8441 15.3687C22.8464 15.3467 22.842 15.3246 22.8316 15.3052C22.8211 15.2858 22.8052 15.2701 22.7858 15.2602C22.7674 15.2504 22.7466 15.2458 22.7258 15.2472C22.7098 15.248 22.6943 15.253 22.6808 15.2618C22.6673 15.2706 22.6563 15.2828 22.6488 15.2972L22.6494 15.297Z" fill="#F5D402"/>
<path d="M22.3322 15.4694C22.3128 15.4822 22.3393 15.6516 22.3336 15.7955C22.3284 15.9312 22.2858 15.9696 22.2624 16.0163C22.2389 16.0631 22.1633 16.1104 22.1633 16.1104L22.2274 16.1757C22.2274 16.1757 22.2692 16.1093 22.3349 15.9777C22.4127 15.8224 22.41 15.5412 22.4329 15.5265C22.4924 15.505 22.5529 15.4869 22.6143 15.4722C22.6143 15.4722 22.4659 15.4641 22.3841 15.4653C22.3667 15.4641 22.3492 15.4655 22.3322 15.4694V15.4694Z" fill="#F5D402"/>
<path d="M22.3493 16.2514C22.3777 16.1794 22.4099 16.1091 22.4456 16.0406C22.5359 15.8597 22.7288 15.7284 22.7335 15.6959C22.7381 15.6633 22.6663 15.5036 22.6663 15.5036C22.6663 15.5036 22.4961 15.5368 22.4721 15.5593C22.4481 15.5818 22.4593 15.8169 22.3687 15.9977C22.3351 16.0681 22.2979 16.1367 22.2571 16.203L22.3493 16.2514Z" fill="#F5D402"/>
<path d="M22.7836 15.7087C22.7836 15.7365 22.561 15.8995 22.4835 16.0548C22.4177 16.1863 22.3899 16.2598 22.3899 16.2598L22.4794 16.274C22.4794 16.274 22.4731 16.1805 22.4947 16.1374C22.5162 16.0943 22.5241 16.0336 22.6289 15.9493C22.7399 15.86 22.89 15.7824 22.8886 15.7585C22.8873 15.7346 22.7211 15.5265 22.7211 15.5265C22.7451 15.5861 22.7661 15.6469 22.7839 15.7087H22.7836Z" fill="#F5D402"/>
<path d="M22.1272 16.7241C22.262 16.4545 22.3029 16.4361 22.3198 16.4022C22.3367 16.3683 22.3337 16.3165 22.274 16.2854C22.2561 16.2753 22.2357 16.2709 22.2153 16.2726C22.2024 16.2741 22.1901 16.279 22.1796 16.2867C22.169 16.2945 22.1606 16.3048 22.155 16.3168C22.1381 16.3507 22.1474 16.3961 22.0126 16.6656L21.7068 17.2777C21.7023 17.2854 21.6995 17.294 21.6984 17.3029C21.6974 17.3118 21.6982 17.3208 21.7008 17.3294C21.7033 17.338 21.7076 17.3459 21.7133 17.3527C21.7191 17.3595 21.7261 17.365 21.734 17.3689C21.7417 17.3732 21.7501 17.3758 21.7588 17.3765C21.7674 17.3773 21.7762 17.3761 21.7844 17.3731C21.7926 17.3702 21.8001 17.3655 21.8064 17.3593C21.8126 17.3532 21.8176 17.3457 21.8208 17.3375L22.1272 16.7241Z" fill="#F5D402"/>
<path d="M21.5865 17.4248C21.5699 17.4582 21.5985 17.5083 21.6509 17.5344C21.7033 17.5606 21.76 17.5564 21.7764 17.523C21.7928 17.4896 21.7633 17.4396 21.7109 17.4134C21.6878 17.4007 21.6616 17.3947 21.6354 17.3962C21.6255 17.3963 21.6158 17.399 21.6073 17.404C21.5988 17.4091 21.5916 17.4162 21.5865 17.4248V17.4248Z" fill="#F5D402"/>
<path d="M21.4733 17.5984C21.4518 17.6418 21.4853 17.7039 21.5489 17.7375C21.6125 17.7712 21.6807 17.7623 21.7025 17.7189C21.7243 17.6755 21.6902 17.6137 21.6269 17.5798C21.6053 17.5682 21.5815 17.5613 21.5571 17.5598C21.541 17.5574 21.5245 17.5597 21.5097 17.5665C21.4949 17.5733 21.4822 17.5843 21.4733 17.5981V17.5984Z" fill="#F5D402"/>
<path d="M21.4017 17.7923C21.3851 17.8257 21.4137 17.8758 21.4661 17.9019C21.5185 17.9281 21.5752 17.9239 21.5916 17.8905C21.608 17.8571 21.5799 17.8071 21.5275 17.7809C21.5038 17.7682 21.4772 17.7622 21.4505 17.7637C21.4408 17.7637 21.4312 17.7663 21.4226 17.7712C21.4141 17.776 21.4069 17.783 21.4017 17.7915V17.7923Z" fill="#F5D402"/>
<path d="M21.3561 17.9773C21.3561 17.9773 21.0164 18.6589 20.8966 18.8987C20.8584 18.9754 20.6972 19.023 20.6339 19.149C20.5706 19.2751 20.6153 19.3952 20.6983 19.4383C20.7812 19.4815 20.9029 19.45 20.9665 19.3229C21.03 19.1958 20.9727 19.035 21.0112 18.9582C21.131 18.7184 21.4707 18.0368 21.4707 18.0368C21.4752 18.0291 21.4781 18.0206 21.4792 18.0117C21.4803 18.0028 21.4795 17.9937 21.4769 17.9851C21.4743 17.9766 21.47 17.9686 21.4643 17.9619C21.4585 17.9551 21.4514 17.9496 21.4434 17.9459C21.4314 17.9394 21.4176 17.9368 21.4041 17.9386C21.3938 17.941 21.3841 17.9457 21.3758 17.9524C21.3675 17.9591 21.3607 17.9676 21.3561 17.9773V17.9773Z" fill="#F5D402"/>
<path d="M20.4967 19.5596C20.4714 19.6105 20.5003 19.6781 20.5625 19.7104C20.6247 19.7427 20.6962 19.7271 20.7216 19.6762C20.7469 19.6253 20.7166 19.5574 20.6547 19.5254C20.6332 19.5138 20.6092 19.5079 20.5849 19.5082C20.567 19.5078 20.5493 19.5124 20.5338 19.5215C20.5183 19.5305 20.5055 19.5437 20.4967 19.5596V19.5596Z" fill="#F5D402"/>
<path d="M20.0445 20.6006C20.0364 20.5999 20.0282 20.6014 20.0208 20.6049C20.0135 20.6084 20.0071 20.6138 20.0025 20.6207C19.9897 20.6465 20.0164 20.6877 20.0625 20.7116C20.1086 20.7356 20.1572 20.7333 20.1716 20.7075C20.1861 20.6816 20.1577 20.6401 20.1113 20.6162C20.0912 20.6054 20.0686 20.6 20.0459 20.6006H20.0445Z" fill="#F5D402"/>
<path d="M19.885 20.7286V21.0649L20.1532 20.8682C20.1245 20.823 20.0845 20.7864 20.0374 20.7619C19.9903 20.7375 19.9378 20.7262 19.885 20.7291V20.7286Z" fill="#F5D402"/>
<path d="M20.0548 13.2434C20.0548 13.0589 20.2925 12.8773 20.2925 12.8773H14.5015C14.5015 12.8773 14.7388 13.0589 14.7388 13.2434V17.6388C14.7368 17.7353 14.7691 17.8294 14.8297 17.9036C14.8843 17.9832 15.004 18.0928 15.1271 18.1743C15.5074 18.426 16.1434 18.6917 16.6244 18.9148C17.0255 19.1009 17.1887 19.1758 17.3968 19.4389C17.6053 19.1758 17.7698 19.1009 18.1706 18.9148C18.6519 18.6923 19.2876 18.426 19.668 18.1743C19.7913 18.0928 19.91 17.9832 19.9656 17.9036C20.0257 17.8292 20.0574 17.7351 20.0548 17.6388V13.2434Z" fill="#F5D402"/>
<path d="M14.8758 15.7304V13.2434C14.8771 13.1622 14.8526 13.0827 14.8059 13.0169H19.9879C19.9413 13.0827 19.9168 13.1622 19.9181 13.2434V15.7298L17.3962 16.5088L14.8758 15.7304Z" fill="#D10429"/>
<path d="M19.9194 15.7304L18.358 15.7006H16.4372L14.8757 15.7304V17.6388C14.8757 17.7347 14.9734 17.9595 15.5365 18.2455C16.4672 18.7184 17.1826 18.939 17.3968 19.2083C17.6112 18.939 18.3266 18.7184 19.2573 18.2455C19.8204 17.9595 19.9181 17.7347 19.9181 17.6388L19.9194 15.7304Z" fill="#0B45BB"/>
<path d="M18.3201 15.6302C18.3201 15.6302 19.2205 15.3988 19.2205 14.4168C19.2205 13.6501 18.3174 13.2698 18.2928 13.0867C18.2044 13.4033 18.5946 13.8406 18.5946 14.3583C18.5946 15.0285 18.1097 15.0605 18.1097 15.0605C17.9962 15.0605 17.9504 15.1439 17.9059 15.1439C17.8104 15.1339 17.7654 15.0101 17.6713 15.0101C17.5826 15.0101 17.5147 15.1492 17.3984 15.1492C17.2822 15.1492 17.2148 15.0101 17.1256 15.0101C17.0312 15.0101 16.9865 15.1339 16.891 15.1439C16.8465 15.1439 16.8004 15.0605 16.6869 15.0605C16.6869 15.0605 16.2023 15.0285 16.2023 14.3583C16.2023 13.8406 16.5925 13.4033 16.5041 13.0867C16.4784 13.2698 15.5764 13.6501 15.5764 14.4168C15.5764 15.3988 16.4768 15.6302 16.4768 15.6302L16.2176 16.1073C16.2176 16.1073 16.5897 16.1262 16.7873 16.2981C17.0257 16.5054 17.0025 16.9444 17.0025 17.2637C17.0025 17.5155 16.9712 17.7809 16.8446 17.8902C16.6746 18.0374 16.5597 18.0482 16.5597 18.2207C16.5597 18.3648 16.6689 18.3935 16.8446 18.4886C17.0708 18.6102 17.0601 18.7732 17.3963 18.7732C17.7324 18.7732 17.7237 18.6102 17.9496 18.4886C18.1258 18.3935 18.2344 18.3648 18.2344 18.2207C18.2344 18.0482 18.1196 18.0374 17.9496 17.8902C17.8227 17.7809 17.7916 17.5152 17.7916 17.2637C17.7916 16.9444 17.7684 16.5054 18.0066 16.2981C18.2044 16.1262 18.5766 16.1073 18.5766 16.1073L18.3201 15.6302Z" fill="black"/>
<path d="M17.3968 13.1549L17.2402 13.6078L16.8143 13.4014L17.0167 13.8356L16.5723 13.9967L17.0164 14.1575L16.8143 14.5898L17.2402 14.3834L17.3968 14.8363L17.5545 14.3839L17.9807 14.5898L17.7782 14.1569L18.2224 13.9961L17.7782 13.835L17.9807 13.4008L17.5545 13.6078L17.3968 13.1549Z" fill="black"/>
<path d="M16.4372 15.7C16.4372 15.7 15.8809 15.561 15.6732 15.2814C15.442 15.4875 15.17 15.6407 14.8757 15.7304C14.8757 15.7304 15.3286 15.9387 15.6732 16.2033C15.8318 15.9716 16.4372 15.6992 16.4372 15.6992V15.7Z" fill="black"/>
<path d="M18.3579 15.7001C18.3579 15.7001 18.9633 15.9724 19.1219 16.2041C19.4665 15.9385 19.9194 15.7312 19.9194 15.7312C19.6251 15.6416 19.3532 15.4887 19.1219 15.2828C18.9142 15.5626 18.3579 15.7015 18.3579 15.7015V15.7001Z" fill="black"/>
<path d="M16.6651 16.3037L16.4487 16.5243L16.6651 16.7452L16.8817 16.5243L16.6651 16.3037Z" fill="black"/>
<path d="M18.1304 16.3037L17.9141 16.5243L18.1304 16.7452L18.3468 16.5243L18.1304 16.3037Z" fill="black"/>
<path d="M16.6106 17.5926C16.6128 17.7351 16.6037 17.8775 16.5833 18.0185C16.5833 18.0185 16.8886 17.9267 16.9494 17.6112C16.9767 17.4632 17.0095 16.918 16.8627 16.8251L16.4646 16.7452C16.5609 17.0169 16.61 17.3037 16.6098 17.5926H16.6106Z" fill="black"/>
<path d="M17.9318 16.8251C17.7851 16.918 17.8167 17.4632 17.8451 17.6112C17.9059 17.9267 18.2112 18.0185 18.2112 18.0185C18.1908 17.8775 18.1817 17.7351 18.1839 17.5926C18.1837 17.3037 18.2328 17.0169 18.3291 16.7452L17.9318 16.8251Z" fill="black"/>
<path d="M15.6721 16.8409C15.6394 16.8493 15.6087 16.8641 15.5817 16.8846C15.5547 16.9051 15.5319 16.9309 15.5147 16.9603C15.4974 16.9898 15.486 17.0225 15.4811 17.0564C15.4763 17.0904 15.478 17.125 15.4863 17.1583C15.4917 17.1792 15.4997 17.1993 15.51 17.2181C15.4896 17.2111 15.4685 17.2068 15.447 17.2053C15.4383 17.2053 15.4293 17.2053 15.4197 17.2053C15.3846 17.2067 15.3502 17.2155 15.3186 17.231C15.287 17.2465 15.2588 17.2685 15.2359 17.2956C15.2129 17.3227 15.1957 17.3543 15.1852 17.3885C15.1748 17.4227 15.1713 17.4586 15.175 17.4942C15.1788 17.5298 15.1897 17.5642 15.207 17.5954C15.2243 17.6265 15.2478 17.6536 15.2758 17.6751C15.3039 17.6967 15.336 17.7121 15.3701 17.7204C15.4043 17.7287 15.4397 17.7298 15.4743 17.7236C15.451 17.7557 15.4352 17.7929 15.4282 17.8322C15.4212 17.8715 15.4232 17.912 15.434 17.9504C15.4448 17.9888 15.4641 18.0242 15.4904 18.0538C15.5168 18.0834 15.5494 18.1064 15.5859 18.1211C15.6492 18.1466 15.7199 18.1455 15.7825 18.1181C15.8451 18.0906 15.8945 18.039 15.9198 17.9745C15.9274 17.9547 15.9325 17.9341 15.9351 17.913C15.9475 17.9306 15.9621 17.9464 15.9785 17.9601C16.0305 18.0046 16.0978 18.0263 16.1655 18.0203C16.2332 18.0143 16.2958 17.9811 16.3395 17.9281C16.3832 17.875 16.4044 17.8064 16.3985 17.7374C16.3926 17.6684 16.3601 17.6046 16.3081 17.56C16.2918 17.5464 16.274 17.5349 16.2549 17.5258C16.2751 17.5191 16.2943 17.5097 16.3122 17.498C16.3699 17.461 16.4109 17.4021 16.4263 17.3344C16.4416 17.2666 16.43 17.1954 16.394 17.1363C16.3761 17.1073 16.3527 17.0822 16.3252 17.0624C16.2977 17.0426 16.2667 17.0286 16.2338 17.0211C16.201 17.0136 16.1671 17.0127 16.1339 17.0186C16.1008 17.0245 16.0691 17.037 16.0407 17.0554C16.0228 17.0665 16.0064 17.0798 15.9919 17.0952C15.992 17.0736 15.9897 17.0521 15.9848 17.0312C15.9704 16.9727 15.9368 16.9211 15.8895 16.885C15.8421 16.8489 15.7841 16.8306 15.725 16.8331C15.7077 16.8338 15.6904 16.8361 15.6735 16.8401L15.6721 16.8409Z" fill="black"/>
<path d="M18.3956 17.6012C18.4229 17.868 18.6357 18.0914 18.8982 18.1551C18.8527 18.0803 18.8241 17.9962 18.8144 17.9089C18.7817 17.5926 19.0215 17.3364 19.3495 17.3364C19.4003 17.3364 19.4509 17.3426 19.5003 17.3547C19.4401 17.2555 19.3563 17.1735 19.2567 17.1163C19.157 17.059 19.0448 17.0284 18.9304 17.0273C18.6024 17.0273 18.3626 17.2849 18.3956 17.6012Z" fill="black"/>
<path d="M16.0701 14.3583C16.0701 14.8627 16.334 15.1604 16.6862 15.1604C16.7533 15.1604 16.8267 15.2527 16.89 15.2527C16.9932 15.2527 17.0619 15.1362 17.1247 15.1362C17.2046 15.1362 17.2584 15.2641 17.3975 15.2641C17.5366 15.2641 17.5912 15.1362 17.6703 15.1362C17.7331 15.1362 17.8019 15.2527 17.905 15.2527C17.9683 15.2527 18.0414 15.1604 18.1088 15.1604C18.461 15.1604 18.7249 14.8627 18.7249 14.3583C18.7249 13.9472 18.3863 13.4456 18.4231 13.3644C18.4231 13.3644 19.0839 13.8476 19.0839 14.4168C19.0839 15.3348 18.1718 15.5604 18.1718 15.5604L18.377 16.0319C18.377 16.0319 18.0943 16.075 17.9216 16.2169C17.6916 16.4064 17.6883 16.9177 17.6883 17.2637C17.6883 17.6713 17.7034 17.8438 17.8477 17.9545C17.9999 18.071 18.1145 18.0961 18.1145 18.2152C18.1145 18.3186 17.9958 18.3609 17.8417 18.4302C17.6665 18.5086 17.6491 18.6452 17.3961 18.6452C17.1432 18.6452 17.1268 18.5086 16.952 18.4302C16.7981 18.3609 16.6791 18.3189 16.6791 18.2152C16.6791 18.0961 16.7937 18.071 16.946 17.9545C17.0903 17.8432 17.1053 17.6713 17.1053 17.2637C17.1053 16.9177 17.1023 16.4064 16.872 16.2169C16.6993 16.075 16.4166 16.0319 16.4166 16.0319L16.6218 15.5604C16.6218 15.5604 15.7097 15.3339 15.7097 14.4168C15.7097 13.8476 16.3705 13.3644 16.3705 13.3644C16.4076 13.4456 16.0688 13.9472 16.0688 14.3583H16.0701ZM17.0524 18.1453C16.8731 18.1453 16.7591 18.184 16.7591 18.2394C16.7591 18.2947 16.8731 18.332 17.0524 18.332C17.1001 18.332 17.1544 18.3042 17.1544 18.2394C17.1541 18.2262 17.1512 18.2133 17.1458 18.2014C17.1405 18.1894 17.1328 18.1787 17.1232 18.1699C17.1137 18.1611 17.1025 18.1544 17.0903 18.1502C17.0781 18.146 17.0652 18.1443 17.0524 18.1453V18.1453ZM17.7437 18.1453C17.7309 18.1443 17.718 18.146 17.7058 18.1502C17.6936 18.1544 17.6824 18.1611 17.6729 18.1699C17.6633 18.1787 17.6556 18.1894 17.6503 18.2014C17.6449 18.2133 17.642 18.2262 17.6417 18.2394C17.6417 18.3036 17.6963 18.332 17.7437 18.332C17.923 18.332 18.037 18.2947 18.037 18.2394C18.037 18.184 17.923 18.1453 17.7437 18.1453V18.1453Z" fill="#FFD200"/>
<path d="M17.3986 13.4598L17.5001 13.7488L17.7702 13.6161L17.6417 13.8943L17.9238 13.9967L17.6417 14.0994L17.7702 14.3756L17.5001 14.2446L17.398 14.5322L17.2974 14.2446L17.0264 14.3756L17.1549 14.0994L16.8726 13.9967L17.1541 13.8943L17.0256 13.6161L17.2966 13.7486L17.3986 13.4595V13.4598Z" fill="#FFD200"/>
<path d="M16.14 15.7173L15.6734 16.0703L15.6677 16.0775L15.6579 16.0689L15.1411 15.7387C15.1411 15.7387 15.471 15.6227 15.665 15.421C15.8486 15.6352 16.14 15.7173 16.14 15.7173Z" fill="#FFD200"/>
<path d="M19.6556 15.7387C19.6556 15.7387 19.3115 15.9134 19.1388 16.0689L19.129 16.0775L19.1233 16.0703C18.9596 15.8792 18.657 15.7173 18.657 15.7173C18.657 15.7173 18.9481 15.6352 19.1317 15.421C19.3243 15.6227 19.6556 15.7387 19.6556 15.7387Z" fill="#FFD200"/>
<path d="M16.6651 16.4091L16.7784 16.5243L16.6651 16.6412L16.5505 16.5243L16.6651 16.4091Z" fill="#FFD200"/>
<path d="M18.1303 16.4091L18.2449 16.5243L18.1303 16.6412L18.0171 16.5243L18.1303 16.4091Z" fill="#FFD200"/>
<path d="M16.8179 16.9132C16.897 17.0245 16.8836 17.2042 16.8836 17.4543C16.886 17.5241 16.87 17.5933 16.8373 17.6546C16.8047 17.716 16.7565 17.7674 16.6978 17.8034C16.6978 17.197 16.6364 17.0523 16.6042 16.8676L16.8179 16.9132Z" fill="#FFD200"/>
<path d="M18.1902 16.8676C18.1577 17.0512 18.0966 17.197 18.0966 17.8032C18.038 17.7673 17.9899 17.7161 17.9572 17.6549C17.9246 17.5937 17.9085 17.5248 17.9108 17.4551C17.9108 17.2048 17.8974 17.0253 17.9765 16.9141L18.1902 16.8684V16.8676Z" fill="#FFD200"/>
<path d="M15.9401 17.0971C15.9494 17.1365 15.9465 17.1778 15.9317 17.2153C15.8999 17.2036 15.8664 17.1978 15.8326 17.1981C15.7916 17.1981 15.7511 17.207 15.7138 17.2242C15.6764 17.2415 15.6431 17.2666 15.616 17.298C15.5884 17.2738 15.5678 17.2424 15.5565 17.2071C15.5453 17.1718 15.5438 17.134 15.5523 17.0979C15.5608 17.0618 15.5788 17.0288 15.6045 17.0025C15.6302 16.9762 15.6625 16.9576 15.6979 16.9488C15.7111 16.9456 15.7246 16.9438 15.7382 16.9433C15.784 16.9414 15.829 16.9557 15.8656 16.9837C15.9023 17.0117 15.9283 17.0518 15.9393 17.0971H15.9401Z" fill="#FFD200"/>
<path d="M16.238 17.4771C16.219 17.4887 16.1983 17.4971 16.1766 17.5019C16.1597 17.5054 16.1423 17.5066 16.1251 17.5055C16.1266 17.4463 16.1108 17.388 16.0797 17.338C16.0486 17.2881 16.0036 17.2486 15.9504 17.2248C15.9573 17.2075 15.9665 17.1912 15.9777 17.1764C15.991 17.1591 16.0071 17.1441 16.0252 17.1322C16.0701 17.1036 16.1242 17.0944 16.1757 17.1066C16.2273 17.1187 16.2719 17.1512 16.2999 17.197C16.3073 17.2088 16.3133 17.2214 16.318 17.2345C16.3338 17.2784 16.3343 17.3265 16.3194 17.3707C16.3044 17.4149 16.275 17.4525 16.2361 17.4771H16.238Z" fill="#FFD200"/>
<path d="M15.9757 17.8833C15.9455 17.857 15.924 17.8218 15.9143 17.7826C15.97 17.7657 16.0195 17.7323 16.0565 17.6867C16.0935 17.6411 16.1164 17.5853 16.1222 17.5264C16.1409 17.528 16.1593 17.5324 16.1768 17.5394C16.1966 17.547 16.2151 17.5579 16.2313 17.5717C16.2514 17.5889 16.268 17.6099 16.2801 17.6336C16.2922 17.6573 16.2996 17.6832 16.3018 17.7098C16.3041 17.7364 16.3012 17.7632 16.2934 17.7887C16.2855 17.8142 16.2727 17.8378 16.2559 17.8582C16.2471 17.8685 16.2372 17.8779 16.2264 17.8861C16.1905 17.915 16.1459 17.9304 16.1001 17.9297C16.0543 17.929 16.0102 17.9122 15.9751 17.8822L15.9757 17.8833Z" fill="#FFD200"/>
<path d="M15.5157 17.7542C15.5243 17.7338 15.5362 17.715 15.5509 17.6986C15.5623 17.6851 15.5756 17.6734 15.5902 17.6638C15.6092 17.6923 15.633 17.717 15.6606 17.737C15.6937 17.7615 15.7316 17.7786 15.7717 17.787C15.8117 17.7954 15.8531 17.7951 15.8931 17.7859C15.8972 17.8041 15.8989 17.8229 15.898 17.8416C15.8972 17.8636 15.8928 17.8853 15.8849 17.9058C15.8649 17.9556 15.8264 17.9953 15.7777 18.0162C15.7291 18.0371 15.6743 18.0374 15.6254 18.0171C15.6127 18.012 15.6006 18.0055 15.5894 17.9976C15.5513 17.9717 15.5231 17.9331 15.5096 17.8885C15.4961 17.8439 15.4981 17.7959 15.5152 17.7525L15.5157 17.7542Z" fill="#FFD200"/>
<path d="M15.494 17.2685C15.5335 17.2717 15.5712 17.2873 15.6018 17.313C15.581 17.3402 15.5652 17.371 15.5551 17.404C15.5426 17.4437 15.5385 17.4858 15.5432 17.5273C15.5479 17.5688 15.5613 17.6088 15.5824 17.6446C15.5664 17.6544 15.5491 17.6618 15.5311 17.6666C15.5006 17.6755 15.4683 17.6767 15.4372 17.6701C15.4061 17.6635 15.3771 17.6493 15.3526 17.6287C15.3281 17.608 15.3089 17.5816 15.2966 17.5517C15.2844 17.5218 15.2794 17.4894 15.2823 17.4571C15.2832 17.4432 15.2856 17.4294 15.2894 17.4159C15.3018 17.3709 15.329 17.3317 15.3665 17.3048C15.404 17.278 15.4494 17.2651 15.4951 17.2685H15.494Z" fill="#FFD200"/>
<path d="M15.8328 17.6927C15.9393 17.6927 16.0257 17.6047 16.0257 17.496C16.0257 17.3874 15.9393 17.2994 15.8328 17.2994C15.7263 17.2994 15.6399 17.3874 15.6399 17.496C15.6399 17.6047 15.7263 17.6927 15.8328 17.6927Z" fill="#FFD200"/>
<path d="M19.2166 17.2309C18.8968 17.2941 18.6666 17.5823 18.6998 17.9189C18.5978 17.8327 18.5233 17.7166 18.5088 17.5884C18.4829 17.338 18.6608 17.1455 18.9293 17.1455C19.0306 17.1463 19.1297 17.1759 19.2155 17.2309H19.2166Z" fill="#FFD200"/>
</g>
<defs>
<filter id="filter0_d" x="0.5" y="1" width="34" height="34" filterUnits="userSpaceOnUse" color-interpolation-filters="sRGB">
<feFlood flood-opacity="0" result="BackgroundImageFix"/>
<feColorMatrix in="SourceAlpha" type="matrix" values="0 0 0 0 0 0 0 0 0 0 0 0 0 0 0 0 0 0 127 0"/>
<feOffset dy="2"/>
<feGaussianBlur stdDeviation="2"/>
<feColorMatrix type="matrix" values="0 0 0 0 0 0 0 0 0 0 0 0 0 0 0 0 0 0 0.3 0"/>
<feBlend mode="normal" in2="BackgroundImageFix" result="effect1_dropShadow"/>
<feBlend mode="normal" in="SourceGraphic" in2="effect1_dropShadow" result="shape"/>
</filter>
</defs>
</svg>
