<svg xmlns="http://www.w3.org/2000/svg" width="85" height="82.88926" viewBox="0 0 85 82.88926"><title>control</title><g id="Layer_2" data-name="Layer 2"><g id="icons"><line x1="42.5" y1="41.45505" x2="42.5" y2="65.88955" fill="none" stroke="#232629" stroke-linecap="round" stroke-miterlimit="10" stroke-width="3"/><line x1="42.5" y1="16.99971" x2="42.5" y2="21.4238" fill="none" stroke="#232629" stroke-linecap="round" stroke-miterlimit="10" stroke-width="3"/><line x1="63.5" y1="49.59766" x2="63.5" y2="65.88955" fill="none" stroke="#232629" stroke-linecap="round" stroke-miterlimit="10" stroke-width="3"/><line x1="63.5" y1="16.99971" x2="63.5" y2="29.59766" fill="none" stroke="#232629" stroke-linecap="round" stroke-miterlimit="10" stroke-width="3"/><line x1="21.5" y1="60.68308" x2="21.5" y2="65.88955" fill="none" stroke="#232629" stroke-linecap="round" stroke-miterlimit="10" stroke-width="3"/><line x1="21.5" y1="16.99971" x2="21.5" y2="40.68308" fill="none" stroke="#232629" stroke-linecap="round" stroke-miterlimit="10" stroke-width="3"/><path d="M63.5,29.59766h0a5,5,0,0,1,5,5v10a5,5,0,0,1-5,5h0a5,5,0,0,1-5-5v-10a5,5,0,0,1,5-5Z" fill="none" stroke="#232629" stroke-linecap="round" stroke-miterlimit="10" stroke-width="3"/><rect x="37.5" y="21.4443" width="10" height="20" rx="4.99999" ry="4.99999" fill="none" stroke="#232629" stroke-linecap="round" stroke-miterlimit="10" stroke-width="3"/><path d="M21.5,40.68308h0a5,5,0,0,1,5,5v10a5,5,0,0,1-5,5h0a5,5,0,0,1-5-5v-10a5,5,0,0,1,5-5Z" fill="none" stroke="#232629" stroke-linecap="round" stroke-miterlimit="10" stroke-width="3"/><rect x="1.5" y="1.5" width="82" height="79.88926" rx="6" ry="6" fill="none" stroke="#232629" stroke-linecap="round" stroke-miterlimit="10" stroke-width="3"/></g></g></svg>