<svg xmlns="http://www.w3.org/2000/svg" xmlns:xlink="http://www.w3.org/1999/xlink" width="30" height="52.59723" viewBox="0 0 30 52.59723"><defs><linearGradient id="a" x1="-513.16653" y1="26.6085" x2="-543.11204" y2="26.6085" gradientTransform="matrix(-1, 0, 0, 1, -513.13928, 0)" gradientUnits="userSpaceOnUse"><stop offset="0" stop-color="#00ff80"/><stop offset="0.17535" stop-color="#07f87f"/><stop offset="0.42749" stop-color="#1ae57c"/><stop offset="0.72444" stop-color="#38c676"/><stop offset="1" stop-color="#5ba370"/></linearGradient><linearGradient id="b" x1="-513.13928" y1="28.78656" x2="-543.13928" y2="28.78656" xlink:href="#a"/><linearGradient id="c" x1="-5.32188" y1="40.67219" x2="25.51992" y2="40.67219" gradientTransform="matrix(1, 0, 0, 1, 0, 0)" xlink:href="#a"/><linearGradient id="d" x1="-513.13928" y1="40.67219" x2="-528.13929" y2="40.67219" xlink:href="#a"/><linearGradient id="e" x1="-1.3243" y1="17.64226" x2="27.74835" y2="17.64226" gradientTransform="matrix(1, 0, 0, 1, 0, 0)" xlink:href="#a"/><linearGradient id="f" x1="-513.16653" y1="17.64226" x2="-528.13929" y2="17.64226" xlink:href="#a"/><linearGradient id="g" x1="0.02726" y1="26.46343" x2="29.97276" y2="26.46343" gradientTransform="matrix(1, 0, 0, 1, 0, 0)" xlink:href="#a"/></defs><title>green_crystal</title><g style="isolation:isolate"><polygon points="29.973 26.64 15.07 17.932 0.027 26.64 15 35.285 29.973 26.64" fill="url(#a)"/><polygon points="30 28.779 15.027 20.134 0 28.747 15 37.439 30 28.779" opacity="0.25" fill="url(#b)"/><polygon points="30 28.779 15 37.439 0 28.747 15 52.597 30 28.779" opacity="0.65" fill="url(#c)"/><polygon points="0 28.747 15 37.439 15 52.597 0 28.747" opacity="0.5" fill="url(#d)"/><polygon points="15 35.285 29.973 26.64 15 0 0.027 26.64 15 35.285" fill="url(#e)"/><polygon points="0.027 26.64 15 0 15 35.285 0.027 26.64" fill="url(#f)"/><polygon points="15 35.285 0.027 26.64 15 17.642 29.973 26.64 15 35.285" opacity="0.67" fill="url(#g)" style="mix-blend-mode:multiply"/></g></svg>