<svg xmlns="http://www.w3.org/2000/svg" width="94" height="95.74805" viewBox="0 0 94 95.74805"><title>growth</title><path d="M46.999,95.74805a9.535,9.535,0,0,1-2.23828-18.80762l.38281-.09277V64.2373H8.791a1.85694,1.85694,0,0,1-1.8545-1.85546V14.2627h-5.082A1.857,1.857,0,0,1,0,12.40723V1.85449A1.85673,1.85673,0,0,1,1.85449,0h90.29A1.85694,1.85694,0,0,1,94,1.85449V12.40723a1.85715,1.85715,0,0,1-1.85547,1.85547h-5.084V62.38184a1.85694,1.85694,0,0,1-1.8545,1.85546H48.85352V76.84766l.38281.09277A9.53515,9.53515,0,0,1,46.999,95.74805Zm0-15.3916a5.84082,5.84082,0,1,0,5.83985,5.84082A5.84735,5.84735,0,0,0,46.999,80.35645ZM10.64648,60.52734H83.35059V14.2627H10.64648ZM3.71,10.55176h86.5791V3.71H3.71Z" fill="#232629"/><path d="M46.999,95.74805a9.535,9.535,0,0,1-2.23828-18.80762l.38281-.09277V64.2373H8.791a1.85694,1.85694,0,0,1-1.8545-1.85546V14.2627h-5.082A1.857,1.857,0,0,1,0,12.40723V1.85449A1.85673,1.85673,0,0,1,1.85449,0h90.29A1.85694,1.85694,0,0,1,94,1.85449V12.40723a1.85715,1.85715,0,0,1-1.85547,1.85547h-5.084V62.38184a1.85694,1.85694,0,0,1-1.8545,1.85546H48.85352V76.84766l.38281.09277A9.53515,9.53515,0,0,1,46.999,95.74805Zm0-15.3916a5.84082,5.84082,0,1,0,5.83985,5.84082A5.84735,5.84735,0,0,0,46.999,80.35645ZM10.64648,60.52734H83.35059V14.2627H10.64648ZM3.71,10.55176h86.5791V3.71H3.71Z" fill="#232629"/><path d="M46.72949,49.32129a1.84317,1.84317,0,0,1-1.31152-.54395l-8.48926-8.48828-8.48828,8.48828a1.85477,1.85477,0,1,1-2.623-2.623l9.79981-9.80078a1.85663,1.85663,0,0,1,2.624,0l8.48828,8.48925L62.3916,29.17969H56.79883a1.855,1.855,0,1,1,0-3.71H66.87012a1.83139,1.83139,0,0,1,.708.14355,1.818,1.818,0,0,1,1.0039,1.00391,1.83133,1.83133,0,0,1,.14356.708V37.39551a1.85547,1.85547,0,0,1-3.71094,0v-5.5918L48.041,48.77734A1.84319,1.84319,0,0,1,46.72949,49.32129Z" fill="#232629"/><path d="M46.72949,49.32129a1.84317,1.84317,0,0,1-1.31152-.54395l-8.48926-8.48828-8.48828,8.48828a1.85477,1.85477,0,1,1-2.623-2.623l9.79981-9.80078a1.85663,1.85663,0,0,1,2.624,0l8.48828,8.48925L62.3916,29.17969H56.79883a1.855,1.855,0,1,1,0-3.71H66.87012a1.83139,1.83139,0,0,1,.708.14355,1.818,1.818,0,0,1,1.0039,1.00391,1.83133,1.83133,0,0,1,.14356.708V37.39551a1.85547,1.85547,0,0,1-3.71094,0v-5.5918L48.041,48.77734A1.84319,1.84319,0,0,1,46.72949,49.32129Z" fill="#232629"/></svg>