<svg xmlns="http://www.w3.org/2000/svg" width="79" height="76.26436" viewBox="0 0 79 76.26436"><title>kitchen</title><line x1="57.36451" y1="64.46408" x2="57.36451" y2="74.76436" fill="none" stroke="#232629" stroke-miterlimit="10" stroke-width="3"/><line x1="64.33986" y1="16.8379" x2="51.45872" y2="16.8379" fill="none" stroke="#232629" stroke-miterlimit="10" stroke-width="3"/><line x1="64.33986" y1="26.81216" x2="51.45872" y2="26.81216" fill="none" stroke="#232629" stroke-miterlimit="10" stroke-width="3"/><rect x="12.76883" y="1.5" width="51.57103" height="62.96408" fill="none" stroke="#232629" stroke-miterlimit="10" stroke-width="3"/><line x1="12.76883" y1="39.93415" x2="64.33986" y2="39.93415" fill="none" stroke="#232629" stroke-miterlimit="10" stroke-width="3"/><polyline points="63.735 16.838 77.5 16.838 77.5 47.979 63.735 47.979" fill="none" stroke="#232629" stroke-miterlimit="10" stroke-width="3"/><path d="M12.76883,1.5H2.4355a.93363.93363,0,0,0-.60325,1.6462L12.76883,17.65956" fill="none" stroke="#232629" stroke-miterlimit="10" stroke-width="3"/><path d="M8.22861,64.46408H68.88007a3.9697,3.9697,0,0,1,3.9697,3.9697v6.33057a0,0,0,0,1,0,0H4.25891a0,0,0,0,1,0,0V68.43378A3.9697,3.9697,0,0,1,8.22861,64.46408Z" fill="none" stroke="#232629" stroke-miterlimit="10" stroke-width="3"/></svg>