<svg xmlns="http://www.w3.org/2000/svg" width="134.91667" height="133.83333" viewBox="0 0 134.91667 133.83333"><title>r4s_chip</title><line x1="16.5" y1="81.91667" y2="81.91667" fill="none" stroke="#252525" stroke-miterlimit="10" stroke-width="5"/><line x1="16.5" y1="36.91667" y2="36.91667" fill="none" stroke="#252525" stroke-miterlimit="10" stroke-width="5"/><line x1="67.45833" y1="16.5" x2="67.45833" fill="none" stroke="#252525" stroke-miterlimit="10" stroke-width="5"/><line x1="97.45833" y1="16.5" x2="97.45833" fill="none" stroke="#252525" stroke-miterlimit="10" stroke-width="5"/><line x1="118.41667" y1="51.91667" x2="134.91667" y2="51.91667" fill="none" stroke="#252525" stroke-miterlimit="10" stroke-width="5"/><line x1="67.45833" y1="117.33333" x2="67.45833" y2="133.83333" fill="none" stroke="#252525" stroke-miterlimit="10" stroke-width="5"/><line x1="52.45833" y1="117.33333" x2="52.45833" y2="133.83333" fill="none" stroke="#252525" stroke-miterlimit="10" stroke-width="5"/><rect x="17.04167" y="16.5" width="100.83333" height="100.83333" fill="none" stroke="#252525" stroke-linecap="round" stroke-miterlimit="10" stroke-width="5"/><line x1="52.45833" y1="16.5" x2="52.45833" fill="none" stroke="#252525" stroke-miterlimit="10" stroke-width="5"/><line x1="37.45833" y1="16.5" x2="37.45833" fill="none" stroke="#252525" stroke-miterlimit="10" stroke-width="5"/><line x1="82.45833" y1="16.5" x2="82.45833" fill="none" stroke="#252525" stroke-miterlimit="10" stroke-width="5"/><line x1="37.45833" y1="117.33333" x2="37.45833" y2="133.83333" fill="none" stroke="#252525" stroke-miterlimit="10" stroke-width="5"/><line x1="82.45833" y1="117.33333" x2="82.45833" y2="133.83333" fill="none" stroke="#252525" stroke-miterlimit="10" stroke-width="5"/><line x1="97.45833" y1="117.33333" x2="97.45833" y2="133.83333" fill="none" stroke="#252525" stroke-miterlimit="10" stroke-width="5"/><line x1="118.41667" y1="66.91667" x2="134.91667" y2="66.91667" fill="none" stroke="#252525" stroke-miterlimit="10" stroke-width="5"/><line x1="118.41667" y1="81.91667" x2="134.91667" y2="81.91667" fill="none" stroke="#252525" stroke-miterlimit="10" stroke-width="5"/><line x1="118.41667" y1="96.91667" x2="134.91667" y2="96.91667" fill="none" stroke="#252525" stroke-miterlimit="10" stroke-width="5"/><line x1="118.41667" y1="36.91667" x2="134.91667" y2="36.91667" fill="none" stroke="#252525" stroke-miterlimit="10" stroke-width="5"/><line x1="16.5" y1="66.91667" y2="66.91667" fill="none" stroke="#252525" stroke-miterlimit="10" stroke-width="5"/><line x1="16.5" y1="96.91667" y2="96.91667" fill="none" stroke="#252525" stroke-miterlimit="10" stroke-width="5"/><line x1="16.5" y1="51.91667" y2="51.91667" fill="none" stroke="#252525" stroke-miterlimit="10" stroke-width="5"/><path d="M50.41673,75.1987H75.2418a66.26341,66.26341,0,0,0,3.52114-26.52093c-1.1004,1.85345-2.285,3.65551-3.54492,5.39039A69.0602,69.0602,0,0,1,50.41673,75.1987Z" fill="#232629"/><path d="M45.36368,78.354A24.90693,24.90693,0,0,0,66.62643,91.791,66.35253,66.35253,0,0,0,74.0452,78.354Z" fill="#232629"/><path d="M72.66482,52.21312a66.75463,66.75463,0,0,0,4.96438-7.98861A24.871,24.871,0,0,0,43.82553,74.70568,65.858,65.858,0,0,0,72.66482,52.21312Z" fill="#232629"/><path d="M81.74185,46.56837A68.86536,68.86536,0,0,1,70.57066,91.61048,24.86738,24.86738,0,0,0,81.74185,46.56837Z" fill="#232629"/></svg>