<svg id="Слой_1" data-name="Слой 1" xmlns="http://www.w3.org/2000/svg" viewBox="0 0 247.84 76.6"><defs><style>.cls-1{fill:#ed174c;}</style></defs><title>R4S Logo (Tablet)</title><path class="cls-1" d="M108.67,28.05l-6.73-8H89.54v8H84.22V7.13C84.22,2,86.44.19,91.13.19h11.43c6.47,0,10.27,2.88,10.27,9.23v1.36c0,4.57-2,7.14-5,8.34l7.48,8.93ZM89.54,15.28h12.3c3.92,0,5.67-.72,5.67-4.36V9.29c0-3.58-1.66-4.36-5.67-4.36h-10c-1.67,0-2.3.05-2.3,2.08Z"/><path class="cls-1" d="M117.5,17.74c0-6.5,2.94-10.6,11.9-10.6,8.16,0,11.92,3.29,11.92,10.61v2.08H122.61c.24,1.9,1.33,3.88,6.87,3.88,3.69,0,5.39-.67,6.18-1.8h5.59c-1.37,4.11-5.19,6.42-11.77,6.42C121.14,28.33,117.5,24.87,117.5,17.74Zm5.12-2.2H136.2c-.31-2.23-2-3.78-6.77-3.78C124,11.76,122.9,13.61,122.62,15.54Z"/><path class="cls-1" d="M155,7.14c8.47,0,12.67,3.5,12.67,11v3.49c0,4.79-2.81,6.4-6.61,6.4h-6.29c-5.79,0-10.34-1.3-10.34-7.08,0-4.81,4.16-6.24,10.33-6.24h7.39c-.52-1.68-2.54-3-7.11-3a20.33,20.33,0,0,0-8.3,1.56V8.67A20.82,20.82,0,0,1,155,7.14Zm-5.5,14c0,1.39,1,2.28,2.89,2.28h8.35c1.82,0,1.86,0,1.86-1.66V19.05H152.38C150.49,19.05,149.49,19.77,149.49,21.1Z"/><path class="cls-1" d="M172.14,19.45V16c0-6.3,3.54-8.6,9.79-8.6h7.95V.19H195V21.62c0,4.47-2.31,6.43-6.65,6.43h-6.38C175.71,28.05,172.14,25.76,172.14,19.45Zm5.08-.53c0,3.88,1.58,4.46,5.64,4.46h4.53c2,0,2.49-.42,2.49-2.29v-9h-7c-4.58,0-5.64,1-5.64,4.45Z"/><path class="cls-1" d="M210.85,35.28h-5.38l3.5-6.83-11.49-21h5.43l8.69,15.89,8.12-15.89h5.38Z"/><path class="cls-1" d="M92.8,48.74h8.7v4.33H92.73v16.3H87.66V53.07H84.22V48.74h3.51c.42-4.29,2.82-7.23,10.12-7.23h4.72v4.33H97.85C94.26,45.84,93.07,46.28,92.8,48.74Z"/><path class="cls-1" d="M128.43,59.06c0,6-2.49,10.59-10.48,10.59h-3.12c-8.79,0-10.48-5.65-10.48-10.59s1.68-10.6,10.48-10.6H118C127.24,48.46,128.43,54.8,128.43,59.06Zm-18.94,0c0,4,.68,6,5.47,6h2.86c4.83,0,5.47-2,5.47-6,0-4.36-1-6-5.47-6H115C109.85,53.08,109.49,55.51,109.49,59.06Z"/><path class="cls-1" d="M132.65,55.43a6.46,6.46,0,0,1,6.89-6.69h7.32v4.68h-7c-1.4,0-2.1.57-2.1,1.9V69.37h-5.08Z"/><path class="cls-1" d="M191.86,60.25c0,5.13-4.56,9.6-16,9.61-10.69,0-14.66-4.19-15.79-9h5.61c.7,2,2.48,4.29,10.18,4.3,7.92,0,10.48-2.32,10.48-4.73,0-1.42-.87-3-5.73-3h-9.71c-7.36,0-10.49-2.81-10.49-7,0-5.29,4.8-9.38,15.1-9.38,9.61,0,14,4.42,15.28,8.36h-5.63c-1.07-2-3.73-3.64-9.66-3.67-7,0-9.58,2.19-9.58,4.5,0,1.1.46,2.45,5.12,2.45h9.66C189.28,52.67,191.86,56.34,191.86,60.25Z"/><path class="cls-1" d="M205.15,60.54l-3.92,3.34v5.49h-5.07V41.51h5.07V57.66l10.5-8.92H219L209,57.29l11.09,12.08h-6.81Z"/><path class="cls-1" d="M233.6,76.6h-5.38l3.49-6.83-11.49-21h5.44l8.68,15.89,8.12-15.89h5.38Z"/><path class="cls-1" d="M42.15,14.25a95.35,95.35,0,0,0,7-11.19A34.84,34.84,0,0,0,1.75,45.75,92.24,92.24,0,0,0,42.15,14.25Z"/><path class="cls-1" d="M3.91,50.86A34.88,34.88,0,0,0,33.69,69.68,92.46,92.46,0,0,0,44.08,50.86Z"/><path class="cls-1" d="M11,46.44H45.76A92.86,92.86,0,0,0,50.69,9.29q-2.31,3.9-5,7.55A96.74,96.74,0,0,1,11,46.44Z"/><path class="cls-1" d="M54.86,6.34a97.17,97.17,0,0,1-5.47,43.08,98.13,98.13,0,0,1-10.17,20A34.83,34.83,0,0,0,54.86,6.34Z"/></svg>