<svg xmlns="http://www.w3.org/2000/svg" viewBox="0 0 76.346 29.951">
  <defs>
    <style>
      .cls-1 {
        fill: #fff;
      }
    </style>
  </defs>
  <g id="r4s_logo_mobile" transform="translate(0 -0.049)">
    <path id="Path_156" data-name="Path 156" class="cls-1" d="M153.259,22.682H159.9c6.321,0,6.732,3.131,6.732,4.611,0,1.867-.976,6.032-10.059,6.04-7.32,0-9.291-3.009-9.952-5.583h2.025c.634,1.956,2.305,3.758,7.927,3.765,5.929,0,8.069-2.052,8.069-4.1,0-1.087-.442-2.9-4.8-2.9h-6.586c-4.511,0-6.367-1.506-6.367-4.18,0-2.832,2.521-5.879,9.7-5.879,5.064,0,8.342,1.718,9.5,5.129h-2.063c-1.057-2.275-3.485-3.277-7.439-3.312-6.086,0-7.685,2.2-7.685,4.038C148.887,21.1,148.971,22.682,153.259,22.682Z" transform="translate(-90.284 -8.874)"/>
    <path id="Path_157" data-name="Path 157" class="cls-1" d="M13.932,27.468c2.359-.634,3.8-2.286,3.8-5.475v-.949c0-4.28-2.586-5.794-6.532-5.794H4.142c-2.8,0-4.142.865-4.142,4.161V33.516H1.921V27.787h9.94l4.726,5.744h2.305ZM11.02,25.951h-9.1v-6.62c0-2.182.446-2.255,2.39-2.255H11.02c3.527,0,4.787,1.064,4.787,3.842V22.07C15.807,24.886,14.547,25.951,11.02,25.951Z" transform="translate(0 -9.36)"/>
    <path id="Path_158" data-name="Path 158" class="cls-1" d="M71.18,26.384H86.142A39.929,39.929,0,0,0,88.263,10.4q-.991,1.679-2.136,3.247A41.616,41.616,0,0,1,71.18,26.384Z" transform="translate(-43.831 -6.374)"/>
    <path id="Path_159" data-name="Path 159" class="cls-1" d="M63.25,57a14.985,14.985,0,0,0,12.814,8.069A39.791,39.791,0,0,0,80.536,57Z" transform="translate(-38.948 -35.069)"/>
    <path id="Path_160" data-name="Path 160" class="cls-1" d="M77.021,6.178A39.642,39.642,0,0,0,80.01,1.364,14.985,14.985,0,0,0,59.646,19.737,39.706,39.706,0,0,0,77.021,6.178Z" transform="translate(-36.262 0)"/>
    <path id="Path_161" data-name="Path 161" class="cls-1" d="M109.522,7.1a41.51,41.51,0,0,1-6.732,27.15A14.985,14.985,0,0,0,109.522,7.1Z" transform="translate(-63.295 -4.342)"/>
  </g>
</svg>
