<svg xmlns="http://www.w3.org/2000/svg" width="90" height="89.9663" viewBox="0 0 90 89.9663"><title>support</title><path d="M86.86677,43.69678a30.75531,30.75531,0,0,0-4.63058-33.67653A30.6921,30.6921,0,0,0,44.95993,3.70767,30.3633,30.3633,0,0,0,3.12372,43.79485l-.386.38575A9.24192,9.24192,0,0,0,9.2721,59.95676a7.34227,7.34227,0,0,0,.825-.05128A9.24983,9.24983,0,0,0,12.7407,67.252a8.919,8.919,0,0,0,7.35916,2.65639,9.204,9.204,0,0,0,9.18,10.05492,7.07238,7.07238,0,0,0,.823-.05219,9.18147,9.18147,0,0,0,14.90412,8.02023.91167.91167,0,0,0,.11516.063,9.18112,9.18112,0,0,0,12.16676-.7868,9.28521,9.28521,0,0,0,2.669-7.33037,9.23582,9.23582,0,0,0,10.003-10.003A9.23576,9.23576,0,0,0,79.96353,59.87151a9.24237,9.24237,0,0,0,7.336-15.742ZM48.467,6.76488A26.3083,26.3083,0,0,1,79.017,12.925a26.16938,26.16938,0,0,1,4.56647,27.48766L57.67258,14.50147a2.17046,2.17046,0,0,0-3.06778.00113L40.02885,29.0772a4.90495,4.90495,0,0,1-6.93495-6.93833ZM9.2721,55.56933a4.8549,4.8549,0,0,1-3.4686-8.323l5.36811-5.36811a4.90566,4.90566,0,0,1,6.9372,6.9381L12.7407,54.18356A4.91857,4.91857,0,0,1,9.2721,55.56933ZM19.27483,65.57206a4.85433,4.85433,0,0,1-3.46635-8.323l5.36384-5.367a4.90606,4.90606,0,1,1,6.93922,6.9372l-5.36811,5.36811A4.921,4.921,0,0,1,19.27483,65.57206Zm6.53638,8.61831a4.90907,4.90907,0,0,1,0-6.93833l5.36811-5.36811a4.905,4.905,0,0,1,6.93518,6.93833l-5.36811,5.36811A5.03339,5.03339,0,0,1,25.81121,74.19037ZM42.74912,84.1931a4.90494,4.90494,0,0,1-6.93495-6.93832l5.36811-5.367a4.905,4.905,0,1,1,6.93517,6.93833Zm11.474-.05106a4.90516,4.90516,0,0,1-5.99925.711l2.96138-2.96139a9.1549,9.1549,0,0,0,2.61793-5.27522,2.14792,2.14792,0,0,0,.41994.58729A4.91273,4.91273,0,0,1,54.2231,84.142ZM84.23175,54.13227a4.91629,4.91629,0,0,1-3.46658,1.38578h-.002a4.91449,4.91449,0,0,1-3.46657-1.38668,2.22086,2.22086,0,0,0-3.06778.0009,2.16719,2.16719,0,0,0,0,3.06576,4.85433,4.85433,0,0,1-3.46635,8.323h-.00225a4.90927,4.90927,0,0,1-3.46635-1.38577,2.2203,2.2203,0,0,0-3.06576,0,2.164,2.164,0,0,0-.002,3.06553,4.90907,4.90907,0,0,1,0,6.93833,5.03681,5.03681,0,0,1-6.9372,0,2.17577,2.17577,0,0,0-3.43037.48066,9.19354,9.19354,0,0,0-10.02207-8.44218,7.42,7.42,0,0,0,.05128-.82391,9.18423,9.18423,0,0,0-2.70542-6.53436,9.28172,9.28172,0,0,0-7.34859-2.64469,7.38842,7.38842,0,0,0,.05105-.82391,9.20056,9.20056,0,0,0-10.054-9.17882,7.33958,7.33958,0,0,0,.05128-.82413A9.24623,9.24623,0,0,0,8.10383,38.81249L6.38539,40.533A26.02645,26.02645,0,0,1,42.02868,7.07168L30.02612,19.07446A9.24153,9.24153,0,1,0,43.09663,32.143L56.13745,19.101l28.0943,28.09406a4.91057,4.91057,0,0,1,0,6.9372Z" fill="#232629"/></svg>