<svg xmlns="http://www.w3.org/2000/svg" xmlns:xlink="http://www.w3.org/1999/xlink" width="50" height="87.66205" viewBox="0 0 50 87.66205"><defs><linearGradient id="a" x1="-467.0757" y1="44.3475" x2="-417.16653" y2="44.3475" gradientTransform="matrix(-1, 0, 0, 1, -417.1211, 0)" gradientUnits="userSpaceOnUse"><stop offset="0" stop-color="#7618f5"/><stop offset="0.15107" stop-color="#7b1ff6"/><stop offset="0.36834" stop-color="#8832f7"/><stop offset="0.62557" stop-color="#9d51fa"/><stop offset="0.91127" stop-color="#ba7cfe"/><stop offset="1" stop-color="#c48bff"/></linearGradient><linearGradient id="b" x1="-467.1211" y1="47.97761" x2="-417.1211" y2="47.97761" xlink:href="#a"/><linearGradient id="c" x1="1.35097" y1="72.43242" x2="45.13079" y2="54.1908" gradientTransform="matrix(1, 0, 0, 1, 0, 0)" xlink:href="#a"/><linearGradient id="d" x1="-442.12112" y1="67.78699" x2="-417.1211" y2="67.78699" xlink:href="#a"/><linearGradient id="e" x1="27.99822" y1="60.91753" x2="17.96531" y2="5.64527" gradientTransform="matrix(1, 0, 0, 1, 0, 0)" xlink:href="#a"/><linearGradient id="f" x1="-442.12112" y1="29.40377" x2="-417.16653" y2="29.40377" xlink:href="#a"/><linearGradient id="g" x1="49.9546" y1="44.10571" x2="0.04543" y2="44.10571" gradientTransform="matrix(1, 0, 0, 1, 0, 0)" xlink:href="#a"/></defs><title>violet_crystal</title><g style="isolation:isolate"><polygon points="49.955 44.4 25.116 29.887 0.045 44.4 25 58.808 49.955 44.4" fill="url(#a)"/><polygon points="50 47.964 25.045 33.557 0 47.912 25 62.398 50 47.964" opacity="0.25" fill="url(#b)"/><polygon points="50 47.964 25 62.398 0 47.912 25 87.662 50 47.964" opacity="0.65" fill="url(#c)"/><polygon points="0 47.912 25 62.398 25 87.662 0 47.912" opacity="0.5" fill="url(#d)"/><polygon points="25 58.808 49.955 44.4 25 0 0.045 44.4 25 58.808" fill="url(#e)"/><polygon points="0.045 44.4 25 0 25 58.808 0.045 44.4" fill="url(#f)"/><polygon points="25 58.808 0.045 44.4 25 29.404 49.955 44.4 25 58.808" opacity="0.3" fill="url(#g)" style="mix-blend-mode:multiply"/></g></svg>