<svg xmlns="http://www.w3.org/2000/svg" width="100" height="89.03312" viewBox="0 0 100 89.03312"><title>x200</title><path d="M100,57.28083V9.35353A9.365,9.365,0,0,0,90.64444,0H9.35353A9.36476,9.36476,0,0,0,0,9.35353V64.70141a9.36572,9.36572,0,0,0,9.35353,9.35465H35.28908V84.63654H27.35661a2.19829,2.19829,0,0,0,0,4.39658H72.64339a2.19829,2.19829,0,1,0,0-4.39658H64.70888V74.05606H90.64444A9.366,9.366,0,0,0,100,64.70141ZM60.3123,84.63654H39.68566V74.05606H60.3123ZM95.60342,64.70141a4.96379,4.96379,0,0,1-4.959,4.95807H9.35353a4.9635,4.9635,0,0,1-4.95695-4.95807V59.47923H95.60342Zm0-9.61876H4.39658V9.35353A4.96327,4.96327,0,0,1,9.35353,4.39658H90.64444a4.96356,4.96356,0,0,1,4.959,4.95695Z" fill="#232629"/><path d="M46.856,66.76753H53.144a2.19829,2.19829,0,1,0,0-4.39658H46.856a2.19829,2.19829,0,0,0,0,4.39658Z" fill="#232629"/><path d="M16.17367,21.67284l-3.333-3.82226H16.3055L17.868,19.79l1.56348-1.93945h3.46387l-3.333,3.82226,4.10547,4.5752h-3.502L17.868,23.53612,15.57113,26.248h-3.502Z" fill="#232629"/><path d="M38.14242,26.248H28.53988l3.76562-4.1045A29.04088,29.04088,0,0,0,34.35824,19.582a4.23112,4.23112,0,0,0,.75293-2.127,1.76847,1.76847,0,0,0-.48926-1.24317,1.7129,1.7129,0,0,0-1.14942-.35742,1.48181,1.48181,0,0,0-1.14843.45117,2.55317,2.55317,0,0,0-.52735,1.54493H28.8973A5.39171,5.39171,0,0,1,30.1971,14.706a4.546,4.546,0,0,1,3.46387-1.2998,4.47,4.47,0,0,1,3.25781,1.18652,4.19942,4.19942,0,0,1,1.167,3.0127,4.46868,4.46868,0,0,1-.9414,2.76758,16.22028,16.22028,0,0,1-2.01465,2.166l-1.31738,1.26074h4.33008Z" fill="#232629"/><path d="M48.38167,25.23143a4.67287,4.67287,0,0,1-3.37011,1.29883,4.60108,4.60108,0,0,1-3.333-1.29883,7.27778,7.27778,0,0,1-1.80762-5.2539A7.26112,7.26112,0,0,1,41.67855,14.706a4.60155,4.60155,0,0,1,3.333-1.2998,4.66923,4.66923,0,0,1,3.37011,1.2998,7.257,7.257,0,0,1,1.80762,5.27149A7.27356,7.27356,0,0,1,48.38167,25.23143Zm-4.51855-8.86914c-.92285.9043-1.05469,2.71192-1.05469,3.59668,0,.9795.16992,2.749,1.05469,3.61524a1.6832,1.6832,0,0,0,2.335,0c.88477-.86621,1.05469-2.63574,1.05469-3.61524,0-.88476-.13184-2.69238-1.05469-3.59668a1.6832,1.6832,0,0,0-2.335,0Z" fill="#232629"/><path d="M59.67562,25.23143a4.67289,4.67289,0,0,1-3.37012,1.29883,4.60109,4.60109,0,0,1-3.333-1.29883,7.27777,7.27777,0,0,1-1.80761-5.2539A7.26111,7.26111,0,0,1,52.97249,14.706a4.60156,4.60156,0,0,1,3.333-1.2998,4.66925,4.66925,0,0,1,3.37012,1.2998,7.257,7.257,0,0,1,1.80762,5.27149A7.27356,7.27356,0,0,1,59.67562,25.23143Zm-4.51856-8.86914c-.92285.9043-1.05468,2.71192-1.05468,3.59668,0,.9795.16992,2.749,1.05468,3.61524a1.6832,1.6832,0,0,0,2.335,0c.88477-.86621,1.05469-2.63574,1.05469-3.61524,0-.88476-.13183-2.69238-1.05469-3.59668a1.6832,1.6832,0,0,0-2.335,0Z" fill="#232629"/></svg>